<svg width="662" height="506" viewBox="0 0 662 506" fill="none" xmlns="http://www.w3.org/2000/svg">
<g filter="url(#filter0_d_108_162)">
<path fill-rule="evenodd" clip-rule="evenodd" d="M-368.854 856.983C-400.967 848.81 -420.375 816.152 -412.203 784.039L-227.725 59.1442C-219.553 27.0307 -186.895 7.6227 -154.781 15.7952L603.063 208.658C635.177 216.831 654.585 249.489 646.412 281.602L461.935 1006.5C453.762 1038.61 421.104 1058.02 388.99 1049.85L-368.854 856.983Z" fill="#3AFFF8" fill-opacity="0.65"/>
<g clip-path="url(#clip0_108_162)" filter="url(#filter1_d_108_162)">
<path d="M126.957 436.353H118.868V458.444H116.881V436.353H108.812V434.659H126.957V436.353ZM134.432 458.795C132.937 458.795 131.586 458.423 130.398 457.679C129.21 456.935 128.247 455.902 127.592 454.58C126.916 453.257 126.589 451.769 126.589 450.137V449.434C126.589 447.739 126.916 446.21 127.572 444.846C128.227 443.482 129.128 442.408 130.295 441.643C131.463 440.879 132.733 440.465 134.084 440.465C136.214 440.465 137.893 441.189 139.143 442.656C140.392 444.123 141.006 446.128 141.006 448.669V449.765H128.493V450.137C128.493 452.141 129.067 453.815 130.193 455.137C131.34 456.481 132.774 457.142 134.494 457.142C135.538 457.142 136.439 456.956 137.238 456.563C138.037 456.191 138.754 455.571 139.409 454.724L140.617 455.654C139.225 457.741 137.156 458.795 134.432 458.795ZM134.084 442.119C132.63 442.119 131.401 442.656 130.398 443.73C129.394 444.805 128.8 446.252 128.575 448.07H139.081V447.863C139.02 446.169 138.549 444.784 137.648 443.71C136.747 442.635 135.559 442.119 134.084 442.119ZM146.741 456.811H158.128V458.465H144.345V457.018L154.974 442.47H144.672V440.775H157.411V442.243L146.741 456.811ZM160.913 449.351C160.913 447.657 161.24 446.128 161.896 444.764C162.551 443.4 163.473 442.346 164.661 441.581C165.848 440.817 167.2 440.445 168.716 440.445C171.05 440.445 172.934 441.271 174.388 442.925C175.843 444.578 176.559 446.768 176.559 449.496V449.909C176.559 451.624 176.232 453.154 175.576 454.518C174.921 455.881 173.999 456.935 172.812 457.679C171.624 458.423 170.272 458.795 168.757 458.795C166.442 458.795 164.538 457.969 163.084 456.315C161.63 454.662 160.913 452.472 160.913 449.744V449.351ZM162.858 449.889C162.858 451.996 163.411 453.732 164.476 455.096C165.562 456.46 166.975 457.121 168.736 457.121C170.477 457.121 171.91 456.439 172.996 455.096C174.081 453.732 174.614 451.955 174.614 449.723V449.351C174.614 448.008 174.368 446.768 173.876 445.632C173.385 444.516 172.689 443.648 171.788 443.028C170.886 442.408 169.862 442.098 168.716 442.098C166.995 442.098 165.582 442.78 164.476 444.144C163.391 445.508 162.838 447.305 162.838 449.517L162.858 449.889ZM191.059 453.96C191.059 452.988 190.67 452.203 189.892 451.624C189.113 451.046 187.967 450.571 186.39 450.24C184.813 449.909 183.625 449.517 182.765 449.103C181.905 448.669 181.27 448.153 180.86 447.533C180.45 446.913 180.225 446.169 180.225 445.28C180.225 443.875 180.799 442.739 181.966 441.829C183.113 440.92 184.608 440.465 186.41 440.465C188.356 440.465 189.933 440.961 191.12 441.933C192.308 442.904 192.902 444.185 192.902 445.756H190.957C190.957 444.722 190.527 443.854 189.666 443.173C188.806 442.491 187.721 442.139 186.41 442.139C185.14 442.139 184.116 442.429 183.338 442.987C182.56 443.565 182.171 444.309 182.171 445.218C182.171 446.107 182.498 446.789 183.133 447.264C183.768 447.739 184.956 448.194 186.656 448.607C188.356 449.021 189.625 449.434 190.486 449.889C191.325 450.343 191.96 450.901 192.37 451.542C192.779 452.182 192.984 452.968 192.984 453.877C192.984 455.365 192.39 456.563 191.202 457.452C190.015 458.341 188.458 458.795 186.533 458.795C184.485 458.795 182.826 458.299 181.577 457.307C180.307 456.315 179.672 455.055 179.672 453.526H181.618C181.7 454.662 182.171 455.551 183.051 456.191C183.932 456.832 185.099 457.142 186.553 457.142C187.905 457.142 188.991 456.832 189.83 456.253C190.649 455.633 191.059 454.869 191.059 453.96ZM94.4968 459.787C94.0258 451.376 83.5401 447.553 82.5366 447.161C82.4957 447.14 82.4957 447.099 82.5161 447.058L93.3295 436.105V434.927C93.3295 434.741 93.1656 434.576 92.9813 434.576H73.0545V426L65.7022 427.55V428.666H66.1118C66.1118 428.666 67.914 428.666 67.914 430.484V434.555H62.2207C62.1183 434.555 62.0159 434.659 62.0159 434.762V437.345H67.9345V451.376C67.9345 455.778 70.7403 458.836 75.6554 458.423C76.6999 458.341 77.6624 457.927 78.4816 457.39C78.8503 457.142 79.0755 456.749 79.0755 456.295V454.91C77.4781 455.985 76.1264 455.923 76.1264 455.923C73.0135 455.923 73.075 451.934 73.075 451.934V437.345H87.4108L77.089 447.843C77.0685 449.227 77.048 450.302 77.048 450.323C77.048 450.364 77.0685 450.385 77.1095 450.385C86.5711 451.996 89.1311 458.175 89.1311 459.973C89.1311 459.973 90.1551 468.714 81.4921 469.314C81.4921 469.314 75.8192 469.562 74.8157 467.268C74.7748 467.185 74.8157 467.102 74.8977 467.061C75.8397 466.627 76.4746 465.78 76.4746 464.643C76.4746 462.949 75.4506 461.564 73.3002 461.564C71.5595 461.564 70.1259 462.949 70.1259 464.643C70.1259 464.643 69.3067 472 81.4717 471.793C95.357 471.545 94.4968 459.787 94.4968 459.787Z" fill="black"/>
<path d="M126.164 423.288C126.164 423.776 126.052 424.224 125.828 424.632C125.604 425.032 125.26 425.356 124.796 425.604C124.332 425.852 123.756 425.976 123.068 425.976H121.796V429H119.744V420.576H123.068C123.74 420.576 124.308 420.692 124.772 420.924C125.236 421.156 125.584 421.476 125.816 421.884C126.048 422.292 126.164 422.76 126.164 423.288ZM122.912 424.344C123.304 424.344 123.596 424.252 123.788 424.068C123.98 423.884 124.076 423.624 124.076 423.288C124.076 422.952 123.98 422.692 123.788 422.508C123.596 422.324 123.304 422.232 122.912 422.232H121.796V424.344H122.912ZM130.28 429.096C129.624 429.096 129.032 428.956 128.504 428.676C127.984 428.396 127.572 427.996 127.268 427.476C126.972 426.956 126.824 426.348 126.824 425.652C126.824 424.964 126.976 424.36 127.28 423.84C127.584 423.312 128 422.908 128.528 422.628C129.056 422.348 129.648 422.208 130.304 422.208C130.96 422.208 131.552 422.348 132.08 422.628C132.608 422.908 133.024 423.312 133.328 423.84C133.632 424.36 133.784 424.964 133.784 425.652C133.784 426.34 133.628 426.948 133.316 427.476C133.012 427.996 132.592 428.396 132.056 428.676C131.528 428.956 130.936 429.096 130.28 429.096ZM130.28 427.32C130.672 427.32 131.004 427.176 131.276 426.888C131.556 426.6 131.696 426.188 131.696 425.652C131.696 425.116 131.56 424.704 131.288 424.416C131.024 424.128 130.696 423.984 130.304 423.984C129.904 423.984 129.572 424.128 129.308 424.416C129.044 424.696 128.912 425.108 128.912 425.652C128.912 426.188 129.04 426.6 129.296 426.888C129.56 427.176 129.888 427.32 130.28 427.32ZM144.485 422.304L142.673 429H140.405L139.349 424.656L138.257 429H136.001L134.177 422.304H136.229L137.177 427.092L138.305 422.304H140.477L141.617 427.068L142.553 422.304H144.485ZM151.579 425.544C151.579 425.736 151.567 425.936 151.543 426.144H146.899C146.931 426.56 147.063 426.88 147.295 427.104C147.535 427.32 147.827 427.428 148.171 427.428C148.683 427.428 149.039 427.212 149.239 426.78H151.423C151.311 427.22 151.107 427.616 150.811 427.968C150.523 428.32 150.159 428.596 149.719 428.796C149.279 428.996 148.787 429.096 148.243 429.096C147.587 429.096 147.003 428.956 146.491 428.676C145.979 428.396 145.579 427.996 145.291 427.476C145.003 426.956 144.859 426.348 144.859 425.652C144.859 424.956 144.999 424.348 145.279 423.828C145.567 423.308 145.967 422.908 146.479 422.628C146.991 422.348 147.579 422.208 148.243 422.208C148.891 422.208 149.467 422.344 149.971 422.616C150.475 422.888 150.867 423.276 151.147 423.78C151.435 424.284 151.579 424.872 151.579 425.544ZM149.479 425.004C149.479 424.652 149.359 424.372 149.119 424.164C148.879 423.956 148.579 423.852 148.219 423.852C147.875 423.852 147.583 423.952 147.343 424.152C147.111 424.352 146.967 424.636 146.911 425.004H149.479ZM154.714 423.42C154.954 423.052 155.254 422.764 155.614 422.556C155.974 422.34 156.374 422.232 156.814 422.232V424.404H156.25C155.738 424.404 155.354 424.516 155.098 424.74C154.842 424.956 154.714 425.34 154.714 425.892V429H152.662V422.304H154.714V423.42ZM164.107 425.544C164.107 425.736 164.095 425.936 164.071 426.144H159.427C159.459 426.56 159.591 426.88 159.823 427.104C160.063 427.32 160.355 427.428 160.699 427.428C161.211 427.428 161.567 427.212 161.767 426.78H163.951C163.839 427.22 163.635 427.616 163.339 427.968C163.051 428.32 162.687 428.596 162.247 428.796C161.807 428.996 161.315 429.096 160.771 429.096C160.115 429.096 159.531 428.956 159.019 428.676C158.507 428.396 158.107 427.996 157.819 427.476C157.531 426.956 157.387 426.348 157.387 425.652C157.387 424.956 157.527 424.348 157.807 423.828C158.095 423.308 158.495 422.908 159.007 422.628C159.519 422.348 160.107 422.208 160.771 422.208C161.419 422.208 161.995 422.344 162.499 422.616C163.003 422.888 163.395 423.276 163.675 423.78C163.963 424.284 164.107 424.872 164.107 425.544ZM162.007 425.004C162.007 424.652 161.887 424.372 161.647 424.164C161.407 423.956 161.107 423.852 160.747 423.852C160.403 423.852 160.111 423.952 159.871 424.152C159.639 424.352 159.495 424.636 159.439 425.004H162.007ZM164.781 425.64C164.781 424.952 164.909 424.348 165.165 423.828C165.429 423.308 165.785 422.908 166.233 422.628C166.681 422.348 167.181 422.208 167.733 422.208C168.173 422.208 168.573 422.3 168.933 422.484C169.301 422.668 169.589 422.916 169.797 423.228V420.12H171.849V429H169.797V428.04C169.605 428.36 169.329 428.616 168.969 428.808C168.617 429 168.205 429.096 167.733 429.096C167.181 429.096 166.681 428.956 166.233 428.676C165.785 428.388 165.429 427.984 165.165 427.464C164.909 426.936 164.781 426.328 164.781 425.64ZM169.797 425.652C169.797 425.14 169.653 424.736 169.365 424.44C169.085 424.144 168.741 423.996 168.333 423.996C167.925 423.996 167.577 424.144 167.289 424.44C167.009 424.728 166.869 425.128 166.869 425.64C166.869 426.152 167.009 426.56 167.289 426.864C167.577 427.16 167.925 427.308 168.333 427.308C168.741 427.308 169.085 427.16 169.365 426.864C169.653 426.568 169.797 426.164 169.797 425.652ZM177.929 423.252C178.121 422.94 178.397 422.688 178.757 422.496C179.117 422.304 179.529 422.208 179.993 422.208C180.545 422.208 181.045 422.348 181.493 422.628C181.941 422.908 182.293 423.308 182.549 423.828C182.813 424.348 182.945 424.952 182.945 425.64C182.945 426.328 182.813 426.936 182.549 427.464C182.293 427.984 181.941 428.388 181.493 428.676C181.045 428.956 180.545 429.096 179.993 429.096C179.521 429.096 179.109 429.004 178.757 428.82C178.405 428.628 178.129 428.376 177.929 428.064V429H175.877V420.12H177.929V423.252ZM180.857 425.64C180.857 425.128 180.713 424.728 180.425 424.44C180.145 424.144 179.797 423.996 179.381 423.996C178.973 423.996 178.625 424.144 178.337 424.44C178.057 424.736 177.917 425.14 177.917 425.652C177.917 426.164 178.057 426.568 178.337 426.864C178.625 427.16 178.973 427.308 179.381 427.308C179.789 427.308 180.137 427.16 180.425 426.864C180.713 426.56 180.857 426.152 180.857 425.64ZM190.861 422.304L186.661 432.18H184.453L185.989 428.772L183.265 422.304H185.557L187.105 426.492L188.641 422.304H190.861Z" fill="#040404"/>
</g>
</g>
<defs>
<filter id="filter0_d_108_162" x="-418.071" y="13.9275" width="1070.35" height="1045.79" filterUnits="userSpaceOnUse" color-interpolation-filters="sRGB">
<feFlood flood-opacity="0" result="BackgroundImageFix"/>
<feColorMatrix in="SourceAlpha" type="matrix" values="0 0 0 0 0 0 0 0 0 0 0 0 0 0 0 0 0 0 127 0" result="hardAlpha"/>
<feOffset dy="4"/>
<feGaussianBlur stdDeviation="2"/>
<feComposite in2="hardAlpha" operator="out"/>
<feColorMatrix type="matrix" values="0 0 0 0 0 0 0 0 0 0 0 0 0 0 0 0 0 0 0.25 0"/>
<feBlend mode="normal" in2="BackgroundImageFix" result="effect1_dropShadow_108_162"/>
<feBlend mode="normal" in="SourceGraphic" in2="effect1_dropShadow_108_162" result="shape"/>
</filter>
<filter id="filter1_d_108_162" x="58" y="426" width="139" height="54" filterUnits="userSpaceOnUse" color-interpolation-filters="sRGB">
<feFlood flood-opacity="0" result="BackgroundImageFix"/>
<feColorMatrix in="SourceAlpha" type="matrix" values="0 0 0 0 0 0 0 0 0 0 0 0 0 0 0 0 0 0 127 0" result="hardAlpha"/>
<feOffset dy="4"/>
<feGaussianBlur stdDeviation="2"/>
<feComposite in2="hardAlpha" operator="out"/>
<feColorMatrix type="matrix" values="0 0 0 0 0 0 0 0 0 0 0 0 0 0 0 0 0 0 0.25 0"/>
<feBlend mode="normal" in2="BackgroundImageFix" result="effect1_dropShadow_108_162"/>
<feBlend mode="normal" in="SourceGraphic" in2="effect1_dropShadow_108_162" result="shape"/>
</filter>
<clipPath id="clip0_108_162">
<rect width="131" height="46" fill="white" transform="translate(62 426)"/>
</clipPath>
</defs>
</svg>
