<svg width="899" height="1284" viewBox="0 0 899 1284" fill="none" xmlns="http://www.w3.org/2000/svg">
<g filter="url(#filter0_dd_114_313)">
<path d="M354.217 1275L352.798 1.00105" stroke="url(#paint0_linear_114_313)" stroke-width="5"/>
</g>
<circle cx="353.5" cy="290" r="16.5" fill="#FF8B45"/>
<circle cx="353.5" cy="614" r="16.5" fill="#FF7472"/>
<circle cx="354.5" cy="774" r="16.5" fill="#FF6888"/>
<circle cx="354.5" cy="936" r="16.5" fill="#FF5CA0"/>
<circle cx="353.5" cy="128" r="16.5" fill="#FFA21A"/>
<circle cx="354.5" cy="452" r="16.5" fill="#FF805B"/>
<circle cx="354.5" cy="1079" r="16.5" fill="#FF5CA0"/>
<circle cx="354.5" cy="1200" r="16.5" fill="#FF5CA0"/>
<path d="M6.118 288.926C6.118 287.158 6.51667 285.572 7.314 284.168C8.11133 282.747 9.19467 281.637 10.564 280.84C11.9507 280.043 13.4847 279.644 15.166 279.644C17.142 279.644 18.8667 280.121 20.34 281.074C21.8133 282.027 22.888 283.379 23.564 285.13H20.73C20.2273 284.038 19.4993 283.197 18.546 282.608C17.61 282.019 16.4833 281.724 15.166 281.724C13.9007 281.724 12.7653 282.019 11.76 282.608C10.7547 283.197 9.966 284.038 9.394 285.13C8.822 286.205 8.536 287.47 8.536 288.926C8.536 290.365 8.822 291.63 9.394 292.722C9.966 293.797 10.7547 294.629 11.76 295.218C12.7653 295.807 13.9007 296.102 15.166 296.102C16.4833 296.102 17.61 295.816 18.546 295.244C19.4993 294.655 20.2273 293.814 20.73 292.722H23.564C22.888 294.455 21.8133 295.799 20.34 296.752C18.8667 297.688 17.142 298.156 15.166 298.156C13.4847 298.156 11.9507 297.766 10.564 296.986C9.19467 296.189 8.11133 295.088 7.314 293.684C6.51667 292.28 6.118 290.694 6.118 288.926ZM33.3 298.234C31.9653 298.234 30.752 297.931 29.66 297.324C28.5853 296.717 27.736 295.859 27.112 294.75C26.5053 293.623 26.202 292.323 26.202 290.85C26.202 289.394 26.514 288.111 27.138 287.002C27.7793 285.875 28.646 285.017 29.738 284.428C30.83 283.821 32.052 283.518 33.404 283.518C34.756 283.518 35.978 283.821 37.07 284.428C38.162 285.017 39.02 285.867 39.644 286.976C40.2853 288.085 40.606 289.377 40.606 290.85C40.606 292.323 40.2767 293.623 39.618 294.75C38.9767 295.859 38.1013 296.717 36.992 297.324C35.8827 297.931 34.652 298.234 33.3 298.234ZM33.3 296.154C34.1493 296.154 34.9467 295.955 35.692 295.556C36.4373 295.157 37.0353 294.559 37.486 293.762C37.954 292.965 38.188 291.994 38.188 290.85C38.188 289.706 37.9627 288.735 37.512 287.938C37.0613 287.141 36.472 286.551 35.744 286.17C35.016 285.771 34.2273 285.572 33.378 285.572C32.5113 285.572 31.714 285.771 30.986 286.17C30.2753 286.551 29.7033 287.141 29.27 287.938C28.8367 288.735 28.62 289.706 28.62 290.85C28.62 292.011 28.828 292.991 29.244 293.788C29.6773 294.585 30.2493 295.183 30.96 295.582C31.6707 295.963 32.4507 296.154 33.3 296.154ZM60.8508 283.492C61.9602 283.492 62.9482 283.726 63.8148 284.194C64.6815 284.645 65.3662 285.329 65.8688 286.248C66.3715 287.167 66.6228 288.285 66.6228 289.602V298H64.2828V289.94C64.2828 288.519 63.9275 287.435 63.2168 286.69C62.5235 285.927 61.5788 285.546 60.3828 285.546C59.1522 285.546 58.1728 285.945 57.4448 286.742C56.7168 287.522 56.3528 288.657 56.3528 290.148V298H54.0128V289.94C54.0128 288.519 53.6575 287.435 52.9468 286.69C52.2535 285.927 51.3088 285.546 50.1128 285.546C48.8822 285.546 47.9028 285.945 47.1748 286.742C46.4468 287.522 46.0828 288.657 46.0828 290.148V298H43.7168V283.752H46.0828V285.806C46.5508 285.061 47.1748 284.489 47.9548 284.09C48.7522 283.691 49.6275 283.492 50.5808 283.492C51.7768 283.492 52.8342 283.761 53.7528 284.298C54.6715 284.835 55.3562 285.624 55.8068 286.664C56.2055 285.659 56.8642 284.879 57.7828 284.324C58.7015 283.769 59.7242 283.492 60.8508 283.492ZM87.638 283.492C88.7473 283.492 89.7353 283.726 90.602 284.194C91.4686 284.645 92.1533 285.329 92.656 286.248C93.1586 287.167 93.41 288.285 93.41 289.602V298H91.07V289.94C91.07 288.519 90.7146 287.435 90.004 286.69C89.3106 285.927 88.366 285.546 87.17 285.546C85.9393 285.546 84.96 285.945 84.232 286.742C83.504 287.522 83.14 288.657 83.14 290.148V298H80.8V289.94C80.8 288.519 80.4446 287.435 79.734 286.69C79.0406 285.927 78.096 285.546 76.9 285.546C75.6693 285.546 74.69 285.945 73.962 286.742C73.234 287.522 72.87 288.657 72.87 290.148V298H70.504V283.752H72.87V285.806C73.338 285.061 73.962 284.489 74.742 284.09C75.5393 283.691 76.4146 283.492 77.368 283.492C78.564 283.492 79.6213 283.761 80.54 284.298C81.4586 284.835 82.1433 285.624 82.594 286.664C82.9926 285.659 83.6513 284.879 84.57 284.324C85.4886 283.769 86.5113 283.492 87.638 283.492ZM109.927 283.752V298H107.561V295.894C107.11 296.622 106.478 297.194 105.663 297.61C104.866 298.009 103.982 298.208 103.011 298.208C101.902 298.208 100.905 297.983 100.021 297.532C99.1371 297.064 98.4351 296.371 97.9151 295.452C97.4124 294.533 97.1611 293.415 97.1611 292.098V283.752H99.5011V291.786C99.5011 293.19 99.8564 294.273 100.567 295.036C101.278 295.781 102.248 296.154 103.479 296.154C104.744 296.154 105.741 295.764 106.469 294.984C107.197 294.204 107.561 293.069 107.561 291.578V283.752H109.927ZM120.864 283.492C122.597 283.492 124.001 284.021 125.076 285.078C126.151 286.118 126.688 287.626 126.688 289.602V298H124.348V289.94C124.348 288.519 123.993 287.435 123.282 286.69C122.571 285.927 121.601 285.546 120.37 285.546C119.122 285.546 118.125 285.936 117.38 286.716C116.652 287.496 116.288 288.631 116.288 290.122V298H113.922V283.752H116.288V285.78C116.756 285.052 117.389 284.489 118.186 284.09C119.001 283.691 119.893 283.492 120.864 283.492ZM131.775 281.438C131.324 281.438 130.943 281.282 130.631 280.97C130.319 280.658 130.163 280.277 130.163 279.826C130.163 279.375 130.319 278.994 130.631 278.682C130.943 278.37 131.324 278.214 131.775 278.214C132.208 278.214 132.572 278.37 132.867 278.682C133.179 278.994 133.335 279.375 133.335 279.826C133.335 280.277 133.179 280.658 132.867 280.97C132.572 281.282 132.208 281.438 131.775 281.438ZM132.919 283.752V298H130.553V283.752H132.919ZM139.837 285.702V294.1C139.837 294.793 139.985 295.287 140.279 295.582C140.574 295.859 141.085 295.998 141.813 295.998H143.555V298H141.423C140.106 298 139.118 297.697 138.459 297.09C137.801 296.483 137.471 295.487 137.471 294.1V285.702H135.625V283.752H137.471V280.164H139.837V283.752H143.555V285.702H139.837ZM158.694 283.752L150.114 304.708H147.67L150.478 297.844L144.732 283.752H147.358L151.83 295.296L156.25 283.752H158.694ZM170.37 286.404C170.855 285.555 171.566 284.861 172.502 284.324C173.438 283.787 174.504 283.518 175.7 283.518C176.983 283.518 178.135 283.821 179.158 284.428C180.181 285.035 180.987 285.893 181.576 287.002C182.165 288.094 182.46 289.368 182.46 290.824C182.46 292.263 182.165 293.545 181.576 294.672C180.987 295.799 180.172 296.674 179.132 297.298C178.109 297.922 176.965 298.234 175.7 298.234C174.469 298.234 173.386 297.965 172.45 297.428C171.531 296.891 170.838 296.206 170.37 295.374V298H168.004V278.76H170.37V286.404ZM180.042 290.824C180.042 289.749 179.825 288.813 179.392 288.016C178.959 287.219 178.369 286.612 177.624 286.196C176.896 285.78 176.09 285.572 175.206 285.572C174.339 285.572 173.533 285.789 172.788 286.222C172.06 286.638 171.471 287.253 171.02 288.068C170.587 288.865 170.37 289.793 170.37 290.85C170.37 291.925 170.587 292.869 171.02 293.684C171.471 294.481 172.06 295.097 172.788 295.53C173.533 295.946 174.339 296.154 175.206 296.154C176.09 296.154 176.896 295.946 177.624 295.53C178.369 295.097 178.959 294.481 179.392 293.684C179.825 292.869 180.042 291.916 180.042 290.824ZM198.21 283.752V298H195.844V295.894C195.394 296.622 194.761 297.194 193.946 297.61C193.149 298.009 192.265 298.208 191.294 298.208C190.185 298.208 189.188 297.983 188.304 297.532C187.42 297.064 186.718 296.371 186.198 295.452C185.696 294.533 185.444 293.415 185.444 292.098V283.752H187.784V291.786C187.784 293.19 188.14 294.273 188.85 295.036C189.561 295.781 190.532 296.154 191.762 296.154C193.028 296.154 194.024 295.764 194.752 294.984C195.48 294.204 195.844 293.069 195.844 291.578V283.752H198.21ZM203.427 281.438C202.976 281.438 202.595 281.282 202.283 280.97C201.971 280.658 201.815 280.277 201.815 279.826C201.815 279.375 201.971 278.994 202.283 278.682C202.595 278.37 202.976 278.214 203.427 278.214C203.86 278.214 204.224 278.37 204.519 278.682C204.831 278.994 204.987 279.375 204.987 279.826C204.987 280.277 204.831 280.658 204.519 280.97C204.224 281.282 203.86 281.438 203.427 281.438ZM204.571 283.752V298H202.205V283.752H204.571ZM210.97 278.76V298H208.604V278.76H210.97ZM214.118 290.824C214.118 289.368 214.413 288.094 215.002 287.002C215.591 285.893 216.397 285.035 217.42 284.428C218.46 283.821 219.621 283.518 220.904 283.518C222.013 283.518 223.045 283.778 223.998 284.298C224.951 284.801 225.679 285.468 226.182 286.3V278.76H228.574V298H226.182V295.322C225.714 296.171 225.021 296.873 224.102 297.428C223.183 297.965 222.109 298.234 220.878 298.234C219.613 298.234 218.46 297.922 217.42 297.298C216.397 296.674 215.591 295.799 215.002 294.672C214.413 293.545 214.118 292.263 214.118 290.824ZM226.182 290.85C226.182 289.775 225.965 288.839 225.532 288.042C225.099 287.245 224.509 286.638 223.764 286.222C223.036 285.789 222.23 285.572 221.346 285.572C220.462 285.572 219.656 285.78 218.928 286.196C218.2 286.612 217.619 287.219 217.186 288.016C216.753 288.813 216.536 289.749 216.536 290.824C216.536 291.916 216.753 292.869 217.186 293.684C217.619 294.481 218.2 295.097 218.928 295.53C219.656 295.946 220.462 296.154 221.346 296.154C222.23 296.154 223.036 295.946 223.764 295.53C224.509 295.097 225.099 294.481 225.532 293.684C225.965 292.869 226.182 291.925 226.182 290.85ZM233.794 281.438C233.344 281.438 232.962 281.282 232.65 280.97C232.338 280.658 232.182 280.277 232.182 279.826C232.182 279.375 232.338 278.994 232.65 278.682C232.962 278.37 233.344 278.214 233.794 278.214C234.228 278.214 234.592 278.37 234.886 278.682C235.198 278.994 235.354 279.375 235.354 279.826C235.354 280.277 235.198 280.658 234.886 280.97C234.592 281.282 234.228 281.438 233.794 281.438ZM234.938 283.752V298H232.572V283.752H234.938ZM245.913 283.492C247.646 283.492 249.05 284.021 250.125 285.078C251.199 286.118 251.737 287.626 251.737 289.602V298H249.397V289.94C249.397 288.519 249.041 287.435 248.331 286.69C247.62 285.927 246.649 285.546 245.419 285.546C244.171 285.546 243.174 285.936 242.429 286.716C241.701 287.496 241.337 288.631 241.337 290.122V298H238.971V283.752H241.337V285.78C241.805 285.052 242.437 284.489 243.235 284.09C244.049 283.691 244.942 283.492 245.913 283.492ZM261.478 283.518C262.708 283.518 263.783 283.787 264.702 284.324C265.638 284.861 266.331 285.537 266.782 286.352V283.752H269.174V298.312C269.174 299.612 268.896 300.765 268.342 301.77C267.787 302.793 266.99 303.59 265.95 304.162C264.927 304.734 263.731 305.02 262.362 305.02C260.49 305.02 258.93 304.578 257.682 303.694C256.434 302.81 255.697 301.605 255.472 300.08H257.812C258.072 300.947 258.609 301.64 259.424 302.16C260.238 302.697 261.218 302.966 262.362 302.966C263.662 302.966 264.719 302.559 265.534 301.744C266.366 300.929 266.782 299.785 266.782 298.312V295.322C266.314 296.154 265.62 296.847 264.702 297.402C263.783 297.957 262.708 298.234 261.478 298.234C260.212 298.234 259.06 297.922 258.02 297.298C256.997 296.674 256.191 295.799 255.602 294.672C255.012 293.545 254.718 292.263 254.718 290.824C254.718 289.368 255.012 288.094 255.602 287.002C256.191 285.893 256.997 285.035 258.02 284.428C259.06 283.821 260.212 283.518 261.478 283.518ZM266.782 290.85C266.782 289.775 266.565 288.839 266.132 288.042C265.698 287.245 265.109 286.638 264.364 286.222C263.636 285.789 262.83 285.572 261.946 285.572C261.062 285.572 260.256 285.78 259.528 286.196C258.8 286.612 258.219 287.219 257.786 288.016C257.352 288.813 257.136 289.749 257.136 290.824C257.136 291.916 257.352 292.869 257.786 293.684C258.219 294.481 258.8 295.097 259.528 295.53C260.256 295.946 261.062 296.154 261.946 296.154C262.83 296.154 263.636 295.946 264.364 295.53C265.109 295.097 265.698 294.481 266.132 293.684C266.565 292.869 266.782 291.925 266.782 290.85Z" fill="white"/>
<path d="M446.778 122.878L441.526 141H438.874L434.662 126.414L430.294 141L427.668 141.026L422.598 122.878H425.12L429.072 138.244L433.44 122.878H436.092L440.252 138.192L444.23 122.878H446.778ZM462.367 133.33C462.367 133.781 462.341 134.257 462.289 134.76H450.901C450.988 136.164 451.465 137.265 452.331 138.062C453.215 138.842 454.281 139.232 455.529 139.232C456.552 139.232 457.401 138.998 458.077 138.53C458.771 138.045 459.256 137.403 459.533 136.606H462.081C461.7 137.975 460.937 139.093 459.793 139.96C458.649 140.809 457.228 141.234 455.529 141.234C454.177 141.234 452.964 140.931 451.889 140.324C450.832 139.717 450 138.859 449.393 137.75C448.787 136.623 448.483 135.323 448.483 133.85C448.483 132.377 448.778 131.085 449.367 129.976C449.957 128.867 450.78 128.017 451.837 127.428C452.912 126.821 454.143 126.518 455.529 126.518C456.881 126.518 458.077 126.813 459.117 127.402C460.157 127.991 460.955 128.806 461.509 129.846C462.081 130.869 462.367 132.03 462.367 133.33ZM459.923 132.836C459.923 131.935 459.724 131.163 459.325 130.522C458.927 129.863 458.381 129.369 457.687 129.04C457.011 128.693 456.257 128.52 455.425 128.52C454.229 128.52 453.207 128.901 452.357 129.664C451.525 130.427 451.049 131.484 450.927 132.836H459.923ZM467.856 129.404C468.342 128.555 469.052 127.861 469.988 127.324C470.924 126.787 471.99 126.518 473.186 126.518C474.469 126.518 475.622 126.821 476.644 127.428C477.667 128.035 478.473 128.893 479.062 130.002C479.652 131.094 479.946 132.368 479.946 133.824C479.946 135.263 479.652 136.545 479.062 137.672C478.473 138.799 477.658 139.674 476.618 140.298C475.596 140.922 474.452 141.234 473.186 141.234C471.956 141.234 470.872 140.965 469.936 140.428C469.018 139.891 468.324 139.206 467.856 138.374V141H465.49V121.76H467.856V129.404ZM477.528 133.824C477.528 132.749 477.312 131.813 476.878 131.016C476.445 130.219 475.856 129.612 475.11 129.196C474.382 128.78 473.576 128.572 472.692 128.572C471.826 128.572 471.02 128.789 470.274 129.222C469.546 129.638 468.957 130.253 468.506 131.068C468.073 131.865 467.856 132.793 467.856 133.85C467.856 134.925 468.073 135.869 468.506 136.684C468.957 137.481 469.546 138.097 470.274 138.53C471.02 138.946 471.826 139.154 472.692 139.154C473.576 139.154 474.382 138.946 475.11 138.53C475.856 138.097 476.445 137.481 476.878 136.684C477.312 135.869 477.528 134.916 477.528 133.824ZM488.105 141.234C487.013 141.234 486.033 141.052 485.167 140.688C484.3 140.307 483.615 139.787 483.113 139.128C482.61 138.452 482.333 137.681 482.281 136.814H484.725C484.794 137.525 485.123 138.105 485.713 138.556C486.319 139.007 487.108 139.232 488.079 139.232C488.98 139.232 489.691 139.033 490.211 138.634C490.731 138.235 490.991 137.733 490.991 137.126C490.991 136.502 490.713 136.043 490.159 135.748C489.604 135.436 488.746 135.133 487.585 134.838C486.527 134.561 485.661 134.283 484.985 134.006C484.326 133.711 483.754 133.287 483.269 132.732C482.801 132.16 482.567 131.415 482.567 130.496C482.567 129.768 482.783 129.101 483.217 128.494C483.65 127.887 484.265 127.411 485.063 127.064C485.86 126.7 486.77 126.518 487.793 126.518C489.37 126.518 490.644 126.917 491.615 127.714C492.585 128.511 493.105 129.603 493.175 130.99H490.809C490.757 130.245 490.453 129.647 489.899 129.196C489.361 128.745 488.633 128.52 487.715 128.52C486.865 128.52 486.189 128.702 485.687 129.066C485.184 129.43 484.933 129.907 484.933 130.496C484.933 130.964 485.08 131.354 485.375 131.666C485.687 131.961 486.068 132.203 486.519 132.394C486.987 132.567 487.628 132.767 488.443 132.992C489.465 133.269 490.297 133.547 490.939 133.824C491.58 134.084 492.126 134.483 492.577 135.02C493.045 135.557 493.287 136.259 493.305 137.126C493.305 137.906 493.088 138.608 492.655 139.232C492.221 139.856 491.606 140.35 490.809 140.714C490.029 141.061 489.127 141.234 488.105 141.234ZM497.867 124.438C497.416 124.438 497.035 124.282 496.723 123.97C496.411 123.658 496.255 123.277 496.255 122.826C496.255 122.375 496.411 121.994 496.723 121.682C497.035 121.37 497.416 121.214 497.867 121.214C498.3 121.214 498.664 121.37 498.959 121.682C499.271 121.994 499.427 122.375 499.427 122.826C499.427 123.277 499.271 123.658 498.959 123.97C498.664 124.282 498.3 124.438 497.867 124.438ZM499.011 126.752V141H496.645V126.752H499.011ZM505.929 128.702V137.1C505.929 137.793 506.076 138.287 506.371 138.582C506.666 138.859 507.177 138.998 507.905 138.998H509.647V141H507.515C506.198 141 505.21 140.697 504.551 140.09C503.892 139.483 503.563 138.487 503.563 137.1V128.702H501.717V126.752H503.563V123.164H505.929V126.752H509.647V128.702H505.929ZM525.514 133.33C525.514 133.781 525.488 134.257 525.436 134.76H514.048C514.134 136.164 514.611 137.265 515.478 138.062C516.362 138.842 517.428 139.232 518.676 139.232C519.698 139.232 520.548 138.998 521.224 138.53C521.917 138.045 522.402 137.403 522.68 136.606H525.228C524.846 137.975 524.084 139.093 522.94 139.96C521.796 140.809 520.374 141.234 518.676 141.234C517.324 141.234 516.11 140.931 515.036 140.324C513.978 139.717 513.146 138.859 512.54 137.75C511.933 136.623 511.63 135.323 511.63 133.85C511.63 132.377 511.924 131.085 512.514 129.976C513.103 128.867 513.926 128.017 514.984 127.428C516.058 126.821 517.289 126.518 518.676 126.518C520.028 126.518 521.224 126.813 522.264 127.402C523.304 127.991 524.101 128.806 524.656 129.846C525.228 130.869 525.514 132.03 525.514 133.33ZM523.07 132.836C523.07 131.935 522.87 131.163 522.472 130.522C522.073 129.863 521.527 129.369 520.834 129.04C520.158 128.693 519.404 128.52 518.572 128.52C517.376 128.52 516.353 128.901 515.504 129.664C514.672 130.427 514.195 131.484 514.074 132.836H523.07ZM537.934 129.066C538.35 128.251 538.94 127.619 539.702 127.168C540.482 126.717 541.427 126.492 542.536 126.492V128.936H541.912C539.26 128.936 537.934 130.375 537.934 133.252V141H535.568V126.752H537.934V129.066ZM558.268 133.33C558.268 133.781 558.242 134.257 558.19 134.76H546.802C546.888 136.164 547.365 137.265 548.232 138.062C549.116 138.842 550.182 139.232 551.43 139.232C552.452 139.232 553.302 138.998 553.978 138.53C554.671 138.045 555.156 137.403 555.434 136.606H557.982C557.6 137.975 556.838 139.093 555.694 139.96C554.55 140.809 553.128 141.234 551.43 141.234C550.078 141.234 548.864 140.931 547.79 140.324C546.732 139.717 545.9 138.859 545.294 137.75C544.687 136.623 544.384 135.323 544.384 133.85C544.384 132.377 544.678 131.085 545.268 129.976C545.857 128.867 546.68 128.017 547.738 127.428C548.812 126.821 550.043 126.518 551.43 126.518C552.782 126.518 553.978 126.813 555.018 127.402C556.058 127.991 556.855 128.806 557.41 129.846C557.982 130.869 558.268 132.03 558.268 133.33ZM555.824 132.836C555.824 131.935 555.624 131.163 555.226 130.522C554.827 129.863 554.281 129.369 553.588 129.04C552.912 128.693 552.158 128.52 551.326 128.52C550.13 128.52 549.107 128.901 548.258 129.664C547.426 130.427 546.949 131.484 546.828 132.836H555.824ZM563.757 121.76V141H561.391V121.76H563.757ZM580.789 133.33C580.789 133.781 580.763 134.257 580.711 134.76H569.323C569.41 136.164 569.886 137.265 570.753 138.062C571.637 138.842 572.703 139.232 573.951 139.232C574.974 139.232 575.823 138.998 576.499 138.53C577.192 138.045 577.678 137.403 577.955 136.606H580.503C580.122 137.975 579.359 139.093 578.215 139.96C577.071 140.809 575.65 141.234 573.951 141.234C572.599 141.234 571.386 140.931 570.311 140.324C569.254 139.717 568.422 138.859 567.815 137.75C567.208 136.623 566.905 135.323 566.905 133.85C566.905 132.377 567.2 131.085 567.789 129.976C568.378 128.867 569.202 128.017 570.259 127.428C571.334 126.821 572.564 126.518 573.951 126.518C575.303 126.518 576.499 126.813 577.539 127.402C578.579 127.991 579.376 128.806 579.931 129.846C580.503 130.869 580.789 132.03 580.789 133.33ZM578.345 132.836C578.345 131.935 578.146 131.163 577.747 130.522C577.348 129.863 576.802 129.369 576.109 129.04C575.433 128.693 574.679 128.52 573.847 128.52C572.651 128.52 571.628 128.901 570.779 129.664C569.947 130.427 569.47 131.484 569.349 132.836H578.345ZM583.028 133.824C583.028 132.368 583.323 131.094 583.912 130.002C584.501 128.893 585.307 128.035 586.33 127.428C587.37 126.821 588.523 126.518 589.788 126.518C591.036 126.518 592.119 126.787 593.038 127.324C593.957 127.861 594.641 128.537 595.092 129.352V126.752H597.484V141H595.092V138.348C594.624 139.18 593.922 139.873 592.986 140.428C592.067 140.965 590.993 141.234 589.762 141.234C588.497 141.234 587.353 140.922 586.33 140.298C585.307 139.674 584.501 138.799 583.912 137.672C583.323 136.545 583.028 135.263 583.028 133.824ZM595.092 133.85C595.092 132.775 594.875 131.839 594.442 131.042C594.009 130.245 593.419 129.638 592.674 129.222C591.946 128.789 591.14 128.572 590.256 128.572C589.372 128.572 588.566 128.78 587.838 129.196C587.11 129.612 586.529 130.219 586.096 131.016C585.663 131.813 585.446 132.749 585.446 133.824C585.446 134.916 585.663 135.869 586.096 136.684C586.529 137.481 587.11 138.097 587.838 138.53C588.566 138.946 589.372 139.154 590.256 139.154C591.14 139.154 591.946 138.946 592.674 138.53C593.419 138.097 594.009 137.481 594.442 136.684C594.875 135.869 595.092 134.925 595.092 133.85ZM606.526 141.234C605.434 141.234 604.455 141.052 603.588 140.688C602.722 140.307 602.037 139.787 601.534 139.128C601.032 138.452 600.754 137.681 600.702 136.814H603.146C603.216 137.525 603.545 138.105 604.134 138.556C604.741 139.007 605.53 139.232 606.5 139.232C607.402 139.232 608.112 139.033 608.632 138.634C609.152 138.235 609.412 137.733 609.412 137.126C609.412 136.502 609.135 136.043 608.58 135.748C608.026 135.436 607.168 135.133 606.006 134.838C604.949 134.561 604.082 134.283 603.406 134.006C602.748 133.711 602.176 133.287 601.69 132.732C601.222 132.16 600.988 131.415 600.988 130.496C600.988 129.768 601.205 129.101 601.638 128.494C602.072 127.887 602.687 127.411 603.484 127.064C604.282 126.7 605.192 126.518 606.214 126.518C607.792 126.518 609.066 126.917 610.036 127.714C611.007 128.511 611.527 129.603 611.596 130.99H609.23C609.178 130.245 608.875 129.647 608.32 129.196C607.783 128.745 607.055 128.52 606.136 128.52C605.287 128.52 604.611 128.702 604.108 129.066C603.606 129.43 603.354 129.907 603.354 130.496C603.354 130.964 603.502 131.354 603.796 131.666C604.108 131.961 604.49 132.203 604.94 132.394C605.408 132.567 606.05 132.767 606.864 132.992C607.887 133.269 608.719 133.547 609.36 133.824C610.002 134.084 610.548 134.483 610.998 135.02C611.466 135.557 611.709 136.259 611.726 137.126C611.726 137.906 611.51 138.608 611.076 139.232C610.643 139.856 610.028 140.35 609.23 140.714C608.45 141.061 607.549 141.234 606.526 141.234ZM628.066 133.33C628.066 133.781 628.04 134.257 627.988 134.76H616.6C616.687 136.164 617.164 137.265 618.03 138.062C618.914 138.842 619.98 139.232 621.228 139.232C622.251 139.232 623.1 138.998 623.776 138.53C624.47 138.045 624.955 137.403 625.232 136.606H627.78C627.399 137.975 626.636 139.093 625.492 139.96C624.348 140.809 622.927 141.234 621.228 141.234C619.876 141.234 618.663 140.931 617.588 140.324C616.531 139.717 615.699 138.859 615.092 137.75C614.486 136.623 614.182 135.323 614.182 133.85C614.182 132.377 614.477 131.085 615.066 129.976C615.656 128.867 616.479 128.017 617.536 127.428C618.611 126.821 619.842 126.518 621.228 126.518C622.58 126.518 623.776 126.813 624.816 127.402C625.856 127.991 626.654 128.806 627.208 129.846C627.78 130.869 628.066 132.03 628.066 133.33ZM625.622 132.836C625.622 131.935 625.423 131.163 625.024 130.522C624.626 129.863 624.08 129.369 623.386 129.04C622.71 128.693 621.956 128.52 621.124 128.52C619.928 128.52 618.906 128.901 618.056 129.664C617.224 130.427 616.748 131.484 616.626 132.836H625.622Z" fill="white"/>
<path d="M35.384 600.008V618H33.018V604.584L27.038 618H25.374L19.368 604.558V618H17.002V600.008H19.55L26.206 614.88L32.862 600.008H35.384ZM38.5125 610.824C38.5125 609.368 38.8072 608.094 39.3965 607.002C39.9859 605.893 40.7919 605.035 41.8145 604.428C42.8545 603.821 44.0072 603.518 45.2725 603.518C46.5205 603.518 47.6039 603.787 48.5225 604.324C49.4412 604.861 50.1259 605.537 50.5765 606.352V603.752H52.9685V618H50.5765V615.348C50.1085 616.18 49.4065 616.873 48.4705 617.428C47.5519 617.965 46.4772 618.234 45.2465 618.234C43.9812 618.234 42.8372 617.922 41.8145 617.298C40.7919 616.674 39.9859 615.799 39.3965 614.672C38.8072 613.545 38.5125 612.263 38.5125 610.824ZM50.5765 610.85C50.5765 609.775 50.3599 608.839 49.9265 608.042C49.4932 607.245 48.9039 606.638 48.1585 606.222C47.4305 605.789 46.6245 605.572 45.7405 605.572C44.8565 605.572 44.0505 605.78 43.3225 606.196C42.5945 606.612 42.0139 607.219 41.5805 608.016C41.1472 608.813 40.9305 609.749 40.9305 610.824C40.9305 611.916 41.1472 612.869 41.5805 613.684C42.0139 614.481 42.5945 615.097 43.3225 615.53C44.0505 615.946 44.8565 616.154 45.7405 616.154C46.6245 616.154 47.4305 615.946 48.1585 615.53C48.9039 615.097 49.4932 614.481 49.9265 613.684C50.3599 612.869 50.5765 611.925 50.5765 610.85ZM59.3328 606.066C59.7488 605.251 60.3382 604.619 61.1008 604.168C61.8808 603.717 62.8255 603.492 63.9348 603.492V605.936H63.3108C60.6588 605.936 59.3328 607.375 59.3328 610.252V618H56.9668V603.752H59.3328V606.066ZM74.6221 618L69.0321 611.708V618H66.6661V598.76H69.0321V610.07L74.5181 603.752H77.8201L71.1121 610.85L77.8461 618H74.6221ZM93.0469 610.33C93.0469 610.781 93.0209 611.257 92.9689 611.76H81.5809C81.6676 613.164 82.1443 614.265 83.0109 615.062C83.8949 615.842 84.9609 616.232 86.2089 616.232C87.2316 616.232 88.0809 615.998 88.7569 615.53C89.4503 615.045 89.9356 614.403 90.2129 613.606H92.7609C92.3796 614.975 91.6169 616.093 90.4729 616.96C89.3289 617.809 87.9076 618.234 86.2089 618.234C84.8569 618.234 83.6436 617.931 82.5689 617.324C81.5116 616.717 80.6796 615.859 80.0729 614.75C79.4663 613.623 79.1629 612.323 79.1629 610.85C79.1629 609.377 79.4576 608.085 80.0469 606.976C80.6363 605.867 81.4596 605.017 82.5169 604.428C83.5916 603.821 84.8223 603.518 86.2089 603.518C87.5609 603.518 88.7569 603.813 89.7969 604.402C90.8369 604.991 91.6343 605.806 92.1889 606.846C92.7609 607.869 93.0469 609.03 93.0469 610.33ZM90.6029 609.836C90.6029 608.935 90.4036 608.163 90.0049 607.522C89.6063 606.863 89.0603 606.369 88.3669 606.04C87.6909 605.693 86.9369 605.52 86.1049 605.52C84.9089 605.52 83.8863 605.901 83.0369 606.664C82.2049 607.427 81.7283 608.484 81.6069 609.836H90.6029ZM99.056 605.702V614.1C99.056 614.793 99.2033 615.287 99.498 615.582C99.7926 615.859 100.304 615.998 101.032 615.998H102.774V618H100.642C99.3246 618 98.3366 617.697 97.678 617.09C97.0193 616.483 96.69 615.487 96.69 614.1V605.702H94.844V603.752H96.69V600.164H99.056V603.752H102.774V605.702H99.056ZM117.757 605.182C117.757 606.69 117.237 607.947 116.197 608.952C115.174 609.94 113.605 610.434 111.491 610.434H108.007V618H105.641V599.878H111.491C113.536 599.878 115.087 600.372 116.145 601.36C117.219 602.348 117.757 603.622 117.757 605.182ZM111.491 608.484C112.808 608.484 113.779 608.198 114.403 607.626C115.027 607.054 115.339 606.239 115.339 605.182C115.339 602.946 114.056 601.828 111.491 601.828H108.007V608.484H111.491ZM123.063 598.76V618H120.697V598.76H123.063ZM126.212 610.824C126.212 609.368 126.506 608.094 127.096 607.002C127.685 605.893 128.491 605.035 129.514 604.428C130.554 603.821 131.706 603.518 132.972 603.518C134.22 603.518 135.303 603.787 136.222 604.324C137.14 604.861 137.825 605.537 138.276 606.352V603.752H140.668V618H138.276V615.348C137.808 616.18 137.106 616.873 136.17 617.428C135.251 617.965 134.176 618.234 132.946 618.234C131.68 618.234 130.536 617.922 129.514 617.298C128.491 616.674 127.685 615.799 127.096 614.672C126.506 613.545 126.212 612.263 126.212 610.824ZM138.276 610.85C138.276 609.775 138.059 608.839 137.626 608.042C137.192 607.245 136.603 606.638 135.858 606.222C135.13 605.789 134.324 605.572 133.44 605.572C132.556 605.572 131.75 605.78 131.022 606.196C130.294 606.612 129.713 607.219 129.28 608.016C128.846 608.813 128.63 609.749 128.63 610.824C128.63 611.916 128.846 612.869 129.28 613.684C129.713 614.481 130.294 615.097 131.022 615.53C131.75 615.946 132.556 616.154 133.44 616.154C134.324 616.154 135.13 615.946 135.858 615.53C136.603 615.097 137.192 614.481 137.626 613.684C138.059 612.869 138.276 611.925 138.276 610.85ZM143.782 610.85C143.782 609.377 144.077 608.094 144.666 607.002C145.255 605.893 146.07 605.035 147.11 604.428C148.167 603.821 149.372 603.518 150.724 603.518C152.475 603.518 153.913 603.943 155.04 604.792C156.184 605.641 156.938 606.82 157.302 608.328H154.754C154.511 607.461 154.035 606.777 153.324 606.274C152.631 605.771 151.764 605.52 150.724 605.52C149.372 605.52 148.28 605.988 147.448 606.924C146.616 607.843 146.2 609.151 146.2 610.85C146.2 612.566 146.616 613.892 147.448 614.828C148.28 615.764 149.372 616.232 150.724 616.232C151.764 616.232 152.631 615.989 153.324 615.504C154.017 615.019 154.494 614.325 154.754 613.424H157.302C156.921 614.88 156.158 616.05 155.014 616.934C153.87 617.801 152.44 618.234 150.724 618.234C149.372 618.234 148.167 617.931 147.11 617.324C146.07 616.717 145.255 615.859 144.666 614.75C144.077 613.641 143.782 612.341 143.782 610.85ZM173.459 610.33C173.459 610.781 173.433 611.257 173.381 611.76H161.993C162.08 613.164 162.556 614.265 163.423 615.062C164.307 615.842 165.373 616.232 166.621 616.232C167.644 616.232 168.493 615.998 169.169 615.53C169.862 615.045 170.348 614.403 170.625 613.606H173.173C172.792 614.975 172.029 616.093 170.885 616.96C169.741 617.809 168.32 618.234 166.621 618.234C165.269 618.234 164.056 617.931 162.981 617.324C161.924 616.717 161.092 615.859 160.485 614.75C159.878 613.623 159.575 612.323 159.575 610.85C159.575 609.377 159.87 608.085 160.459 606.976C161.048 605.867 161.872 605.017 162.929 604.428C164.004 603.821 165.234 603.518 166.621 603.518C167.973 603.518 169.169 603.813 170.209 604.402C171.249 604.991 172.046 605.806 172.601 606.846C173.173 607.869 173.459 609.03 173.459 610.33ZM171.015 609.836C171.015 608.935 170.816 608.163 170.417 607.522C170.018 606.863 169.472 606.369 168.779 606.04C168.103 605.693 167.349 605.52 166.517 605.52C165.321 605.52 164.298 605.901 163.449 606.664C162.617 607.427 162.14 608.484 162.019 609.836H171.015ZM185.88 598.76V618H183.514V598.76H185.88ZM189.028 610.824C189.028 609.368 189.323 608.094 189.912 607.002C190.501 605.893 191.307 605.035 192.33 604.428C193.37 603.821 194.523 603.518 195.788 603.518C197.036 603.518 198.119 603.787 199.038 604.324C199.957 604.861 200.641 605.537 201.092 606.352V603.752H203.484V618H201.092V615.348C200.624 616.18 199.922 616.873 198.986 617.428C198.067 617.965 196.993 618.234 195.762 618.234C194.497 618.234 193.353 617.922 192.33 617.298C191.307 616.674 190.501 615.799 189.912 614.672C189.323 613.545 189.028 612.263 189.028 610.824ZM201.092 610.85C201.092 609.775 200.875 608.839 200.442 608.042C200.009 607.245 199.419 606.638 198.674 606.222C197.946 605.789 197.14 605.572 196.256 605.572C195.372 605.572 194.566 605.78 193.838 606.196C193.11 606.612 192.529 607.219 192.096 608.016C191.663 608.813 191.446 609.749 191.446 610.824C191.446 611.916 191.663 612.869 192.096 613.684C192.529 614.481 193.11 615.097 193.838 615.53C194.566 615.946 195.372 616.154 196.256 616.154C197.14 616.154 197.946 615.946 198.674 615.53C199.419 615.097 200.009 614.481 200.442 613.684C200.875 612.869 201.092 611.925 201.092 610.85ZM220.118 603.752V618H217.752V615.894C217.302 616.622 216.669 617.194 215.854 617.61C215.057 618.009 214.173 618.208 213.202 618.208C212.093 618.208 211.096 617.983 210.212 617.532C209.328 617.064 208.626 616.371 208.106 615.452C207.604 614.533 207.352 613.415 207.352 612.098V603.752H209.692V611.786C209.692 613.19 210.048 614.273 210.758 615.036C211.469 615.781 212.44 616.154 213.67 616.154C214.936 616.154 215.932 615.764 216.66 614.984C217.388 614.204 217.752 613.069 217.752 611.578V603.752H220.118ZM231.055 603.492C232.789 603.492 234.193 604.021 235.267 605.078C236.342 606.118 236.879 607.626 236.879 609.602V618H234.539V609.94C234.539 608.519 234.184 607.435 233.473 606.69C232.763 605.927 231.792 605.546 230.561 605.546C229.313 605.546 228.317 605.936 227.571 606.716C226.843 607.496 226.479 608.631 226.479 610.122V618H224.113V603.752H226.479V605.78C226.947 605.052 227.58 604.489 228.377 604.09C229.192 603.691 230.085 603.492 231.055 603.492ZM239.86 610.85C239.86 609.377 240.155 608.094 240.744 607.002C241.334 605.893 242.148 605.035 243.188 604.428C244.246 603.821 245.45 603.518 246.802 603.518C248.553 603.518 249.992 603.943 251.118 604.792C252.262 605.641 253.016 606.82 253.38 608.328H250.832C250.59 607.461 250.113 606.777 249.402 606.274C248.709 605.771 247.842 605.52 246.802 605.52C245.45 605.52 244.358 605.988 243.526 606.924C242.694 607.843 242.278 609.151 242.278 610.85C242.278 612.566 242.694 613.892 243.526 614.828C244.358 615.764 245.45 616.232 246.802 616.232C247.842 616.232 248.709 615.989 249.402 615.504C250.096 615.019 250.572 614.325 250.832 613.424H253.38C252.999 614.88 252.236 616.05 251.092 616.934C249.948 617.801 248.518 618.234 246.802 618.234C245.45 618.234 244.246 617.931 243.188 617.324C242.148 616.717 241.334 615.859 240.744 614.75C240.155 613.641 239.86 612.341 239.86 610.85ZM263.609 603.492C264.684 603.492 265.654 603.726 266.521 604.194C267.388 604.645 268.064 605.329 268.549 606.248C269.052 607.167 269.303 608.285 269.303 609.602V618H266.963V609.94C266.963 608.519 266.608 607.435 265.897 606.69C265.186 605.927 264.216 605.546 262.985 605.546C261.737 605.546 260.74 605.936 259.995 606.716C259.267 607.496 258.903 608.631 258.903 610.122V618H256.537V598.76H258.903V605.78C259.371 605.052 260.012 604.489 260.827 604.09C261.659 603.691 262.586 603.492 263.609 603.492Z" fill="white"/>
<path d="M444.89 448.3V469H442.79V452.47L435.41 469H433.88L426.5 452.53V469H424.4V448.3H426.62L434.63 466.24L442.64 448.3H444.89ZM450.704 449.53C450.284 449.53 449.924 449.38 449.624 449.08C449.324 448.78 449.174 448.41 449.174 447.97C449.174 447.53 449.324 447.17 449.624 446.89C449.924 446.59 450.284 446.44 450.704 446.44C451.124 446.44 451.484 446.59 451.784 446.89C452.084 447.17 452.234 447.53 452.234 447.97C452.234 448.41 452.084 448.78 451.784 449.08C451.484 449.38 451.124 449.53 450.704 449.53ZM451.754 452.62V469H449.654V452.62H451.754ZM464.189 452.32C466.149 452.32 467.749 452.93 468.989 454.15C470.229 455.35 470.849 457.1 470.849 459.4V469H468.779V459.64C468.779 457.86 468.329 456.5 467.429 455.56C466.549 454.62 465.339 454.15 463.799 454.15C462.219 454.15 460.959 454.65 460.019 455.65C459.079 456.65 458.609 458.12 458.609 460.06V469H456.509V452.62H458.609V455.41C459.129 454.41 459.879 453.65 460.859 453.13C461.839 452.59 462.949 452.32 464.189 452.32ZM478.224 454.39V464.56C478.224 465.56 478.414 466.25 478.794 466.63C479.174 467.01 479.844 467.2 480.804 467.2H482.724V469H480.474C478.994 469 477.894 468.66 477.174 467.98C476.454 467.28 476.094 466.14 476.094 464.56V454.39H473.814V452.62H476.094V448.51H478.224V452.62H482.724V454.39H478.224ZM493.46 460.78C493.46 459.1 493.8 457.63 494.48 456.37C495.16 455.09 496.09 454.11 497.27 453.43C498.47 452.73 499.82 452.38 501.32 452.38C502.76 452.38 504.06 452.73 505.22 453.43C506.38 454.13 507.23 455.04 507.77 456.16V446.8H509.87V469H507.77V465.34C507.27 466.48 506.45 467.42 505.31 468.16C504.17 468.88 502.83 469.24 501.29 469.24C499.79 469.24 498.44 468.89 497.24 468.19C496.06 467.49 495.13 466.5 494.45 465.22C493.79 463.94 493.46 462.46 493.46 460.78ZM507.77 460.81C507.77 459.49 507.5 458.33 506.96 457.33C506.42 456.33 505.68 455.56 504.74 455.02C503.82 454.48 502.8 454.21 501.68 454.21C500.52 454.21 499.48 454.47 498.56 454.99C497.64 455.51 496.91 456.27 496.37 457.27C495.85 458.25 495.59 459.42 495.59 460.78C495.59 462.12 495.85 463.3 496.37 464.32C496.91 465.32 497.64 466.09 498.56 466.63C499.48 467.15 500.52 467.41 501.68 467.41C502.8 467.41 503.82 467.14 504.74 466.6C505.68 466.06 506.42 465.29 506.96 464.29C507.5 463.29 507.77 462.13 507.77 460.81ZM513.704 460.78C513.704 459.1 514.034 457.63 514.694 456.37C515.374 455.09 516.304 454.11 517.484 453.43C518.684 452.73 520.034 452.38 521.534 452.38C523.094 452.38 524.434 452.74 525.554 453.46C526.694 454.18 527.514 455.1 528.014 456.22V452.62H530.114V469H528.014V465.37C527.494 466.49 526.664 467.42 525.524 468.16C524.404 468.88 523.064 469.24 521.504 469.24C520.024 469.24 518.684 468.89 517.484 468.19C516.304 467.49 515.374 466.5 514.694 465.22C514.034 463.94 513.704 462.46 513.704 460.78ZM528.014 460.81C528.014 459.49 527.744 458.33 527.204 457.33C526.664 456.33 525.924 455.56 524.984 455.02C524.064 454.48 523.044 454.21 521.924 454.21C520.764 454.21 519.724 454.47 518.804 454.99C517.884 455.51 517.154 456.27 516.614 457.27C516.094 458.25 515.834 459.42 515.834 460.78C515.834 462.12 516.094 463.3 516.614 464.32C517.154 465.32 517.884 466.09 518.804 466.63C519.724 467.15 520.764 467.41 521.924 467.41C523.044 467.41 524.064 467.14 524.984 466.6C525.924 466.06 526.664 465.29 527.204 464.29C527.744 463.29 528.014 462.13 528.014 460.81ZM548.408 452.62L538.688 476.71H536.498L539.678 468.91L532.958 452.62H535.268L540.848 466.6L546.248 452.62H548.408Z" fill="white"/>
<path d="M129.81 930.06C129.81 931.86 129.22 933.31 128.04 934.41C126.86 935.51 125.09 936.06 122.73 936.06H118.5V945H116.4V924.03H122.73C125.07 924.03 126.83 924.58 128.01 925.68C129.21 926.78 129.81 928.24 129.81 930.06ZM122.73 934.26C126.01 934.26 127.65 932.86 127.65 930.06C127.65 928.66 127.26 927.6 126.48 926.88C125.7 926.16 124.45 925.8 122.73 925.8H118.5V934.26H122.73ZM147.524 928.62V945H145.424V942.12C144.944 943.14 144.204 943.92 143.204 944.46C142.204 945 141.084 945.27 139.844 945.27C137.884 945.27 136.284 944.67 135.044 943.47C133.804 942.25 133.184 940.49 133.184 938.19V928.62H135.254V937.95C135.254 939.73 135.694 941.09 136.574 942.03C137.474 942.97 138.694 943.44 140.234 943.44C141.814 943.44 143.074 942.94 144.014 941.94C144.954 940.94 145.424 939.47 145.424 937.53V928.62H147.524ZM154.388 932.25C154.928 931.11 155.758 930.18 156.878 929.46C158.018 928.74 159.358 928.38 160.898 928.38C162.398 928.38 163.738 928.73 164.918 929.43C166.098 930.11 167.018 931.09 167.678 932.37C168.358 933.63 168.698 935.1 168.698 936.78C168.698 938.46 168.358 939.94 167.678 941.22C167.018 942.5 166.088 943.49 164.888 944.19C163.708 944.89 162.378 945.24 160.898 945.24C159.338 945.24 157.988 944.89 156.848 944.19C155.728 943.47 154.908 942.54 154.388 941.4V945H152.318V922.8H154.388V932.25ZM166.568 936.78C166.568 935.42 166.298 934.25 165.758 933.27C165.238 932.27 164.518 931.51 163.598 930.99C162.678 930.47 161.638 930.21 160.478 930.21C159.358 930.21 158.328 930.48 157.388 931.02C156.468 931.56 155.738 932.33 155.198 933.33C154.658 934.33 154.388 935.49 154.388 936.81C154.388 938.13 154.658 939.29 155.198 940.29C155.738 941.29 156.468 942.06 157.388 942.6C158.328 943.14 159.358 943.41 160.478 943.41C161.638 943.41 162.678 943.15 163.598 942.63C164.518 942.09 165.238 941.32 165.758 940.32C166.298 939.3 166.568 938.12 166.568 936.78ZM174.662 922.8V945H172.562V922.8H174.662ZM180.468 925.53C180.048 925.53 179.688 925.38 179.388 925.08C179.088 924.78 178.938 924.41 178.938 923.97C178.938 923.53 179.088 923.17 179.388 922.89C179.688 922.59 180.048 922.44 180.468 922.44C180.888 922.44 181.248 922.59 181.548 922.89C181.848 923.17 181.998 923.53 181.998 923.97C181.998 924.41 181.848 924.78 181.548 925.08C181.248 925.38 180.888 925.53 180.468 925.53ZM181.518 928.62V945H179.418V928.62H181.518ZM185.313 936.81C185.313 935.11 185.653 933.63 186.333 932.37C187.013 931.09 187.953 930.11 189.153 929.43C190.353 928.73 191.723 928.38 193.263 928.38C195.283 928.38 196.943 928.88 198.243 929.88C199.563 930.88 200.413 932.24 200.793 933.96H198.543C198.263 932.78 197.653 931.86 196.713 931.2C195.793 930.52 194.643 930.18 193.263 930.18C192.163 930.18 191.173 930.43 190.293 930.93C189.413 931.43 188.713 932.18 188.193 933.18C187.693 934.16 187.443 935.37 187.443 936.81C187.443 938.25 187.693 939.47 188.193 940.47C188.713 941.47 189.413 942.22 190.293 942.72C191.173 943.22 192.163 943.47 193.263 943.47C194.643 943.47 195.793 943.14 196.713 942.48C197.653 941.8 198.263 940.86 198.543 939.66H200.793C200.413 941.34 199.563 942.69 198.243 943.71C196.923 944.73 195.263 945.24 193.263 945.24C191.723 945.24 190.353 944.9 189.153 944.22C187.953 943.52 187.013 942.54 186.333 941.28C185.653 940 185.313 938.51 185.313 936.81ZM218.544 945.24C216.664 945.24 215.124 944.81 213.924 943.95C212.744 943.07 212.084 941.88 211.944 940.38H214.104C214.204 941.3 214.634 942.05 215.394 942.63C216.174 943.19 217.214 943.47 218.514 943.47C219.654 943.47 220.544 943.2 221.184 942.66C221.844 942.12 222.174 941.45 222.174 940.65C222.174 940.09 221.994 939.63 221.634 939.27C221.274 938.91 220.814 938.63 220.254 938.43C219.714 938.21 218.974 937.98 218.034 937.74C216.814 937.42 215.824 937.1 215.064 936.78C214.304 936.46 213.654 935.99 213.114 935.37C212.594 934.73 212.334 933.88 212.334 932.82C212.334 932.02 212.574 931.28 213.054 930.6C213.534 929.92 214.214 929.38 215.094 928.98C215.974 928.58 216.974 928.38 218.094 928.38C219.854 928.38 221.274 928.83 222.354 929.73C223.434 930.61 224.014 931.83 224.094 933.39H221.994C221.934 932.43 221.554 931.66 220.854 931.08C220.174 930.48 219.234 930.18 218.034 930.18C216.974 930.18 216.114 930.43 215.454 930.93C214.794 931.43 214.464 932.05 214.464 932.79C214.464 933.43 214.654 933.96 215.034 934.38C215.434 934.78 215.924 935.1 216.504 935.34C217.084 935.56 217.864 935.81 218.844 936.09C220.024 936.41 220.964 936.72 221.664 937.02C222.364 937.32 222.964 937.76 223.464 938.34C223.964 938.92 224.224 939.69 224.244 940.65C224.244 941.53 224.004 942.32 223.524 943.02C223.044 943.7 222.374 944.24 221.514 944.64C220.654 945.04 219.664 945.24 218.544 945.24ZM227.237 936.78C227.237 935.1 227.567 933.63 228.227 932.37C228.907 931.09 229.837 930.11 231.017 929.43C232.217 928.73 233.567 928.38 235.067 928.38C236.627 928.38 237.967 928.74 239.087 929.46C240.227 930.18 241.047 931.1 241.547 932.22V928.62H243.647V945H241.547V941.37C241.027 942.49 240.197 943.42 239.057 944.16C237.937 944.88 236.597 945.24 235.037 945.24C233.557 945.24 232.217 944.89 231.017 944.19C229.837 943.49 228.907 942.5 228.227 941.22C227.567 939.94 227.237 938.46 227.237 936.78ZM241.547 936.81C241.547 935.49 241.277 934.33 240.737 933.33C240.197 932.33 239.457 931.56 238.517 931.02C237.597 930.48 236.577 930.21 235.457 930.21C234.297 930.21 233.257 930.47 232.337 930.99C231.417 931.51 230.687 932.27 230.147 933.27C229.627 934.25 229.367 935.42 229.367 936.78C229.367 938.12 229.627 939.3 230.147 940.32C230.687 941.32 231.417 942.09 232.337 942.63C233.257 943.15 234.297 943.41 235.457 943.41C236.577 943.41 237.597 943.14 238.517 942.6C239.457 942.06 240.197 941.29 240.737 940.29C241.277 939.29 241.547 938.13 241.547 936.81ZM250.541 922.8V945H248.441V922.8H250.541ZM270.116 935.97C270.116 936.69 270.096 937.24 270.056 937.62H256.466C256.526 938.86 256.826 939.92 257.366 940.8C257.906 941.68 258.616 942.35 259.496 942.81C260.376 943.25 261.336 943.47 262.376 943.47C263.736 943.47 264.876 943.14 265.796 942.48C266.736 941.82 267.356 940.93 267.656 939.81H269.876C269.476 941.41 268.616 942.72 267.296 943.74C265.996 944.74 264.356 945.24 262.376 945.24C260.836 945.24 259.456 944.9 258.236 944.22C257.016 943.52 256.056 942.54 255.356 941.28C254.676 940 254.336 938.51 254.336 936.81C254.336 935.11 254.676 933.62 255.356 932.34C256.036 931.06 256.986 930.08 258.206 929.4C259.426 928.72 260.816 928.38 262.376 928.38C263.936 928.38 265.296 928.72 266.456 929.4C267.636 930.08 268.536 931 269.156 932.16C269.796 933.3 270.116 934.57 270.116 935.97ZM267.986 935.91C268.006 934.69 267.756 933.65 267.236 932.79C266.736 931.93 266.046 931.28 265.166 930.84C264.286 930.4 263.326 930.18 262.286 930.18C260.726 930.18 259.396 930.68 258.296 931.68C257.196 932.68 256.586 934.09 256.466 935.91H267.986Z" fill="white"/>
<path d="M432.218 787.182C430.537 787.182 429.003 786.792 427.616 786.012C426.229 785.215 425.129 784.114 424.314 782.71C423.517 781.289 423.118 779.694 423.118 777.926C423.118 776.158 423.517 774.572 424.314 773.168C425.129 771.747 426.229 770.646 427.616 769.866C429.003 769.069 430.537 768.67 432.218 768.67C433.917 768.67 435.459 769.069 436.846 769.866C438.233 770.646 439.325 771.738 440.122 773.142C440.919 774.546 441.318 776.141 441.318 777.926C441.318 779.711 440.919 781.306 440.122 782.71C439.325 784.114 438.233 785.215 436.846 786.012C435.459 786.792 433.917 787.182 432.218 787.182ZM432.218 785.128C433.483 785.128 434.619 784.833 435.624 784.244C436.647 783.655 437.444 782.814 438.016 781.722C438.605 780.63 438.9 779.365 438.9 777.926C438.9 776.47 438.605 775.205 438.016 774.13C437.444 773.038 436.655 772.197 435.65 771.608C434.645 771.019 433.501 770.724 432.218 770.724C430.935 770.724 429.791 771.019 428.786 771.608C427.781 772.197 426.983 773.038 426.394 774.13C425.822 775.205 425.536 776.47 425.536 777.926C425.536 779.365 425.822 780.63 426.394 781.722C426.983 782.814 427.781 783.655 428.786 784.244C429.809 784.833 430.953 785.128 432.218 785.128ZM446.807 775.378C447.275 774.563 447.969 773.887 448.887 773.35C449.823 772.795 450.907 772.518 452.137 772.518C453.403 772.518 454.547 772.821 455.569 773.428C456.609 774.035 457.424 774.893 458.013 776.002C458.603 777.094 458.897 778.368 458.897 779.824C458.897 781.263 458.603 782.545 458.013 783.672C457.424 784.799 456.609 785.674 455.569 786.298C454.547 786.922 453.403 787.234 452.137 787.234C450.924 787.234 449.849 786.965 448.913 786.428C447.995 785.873 447.293 785.189 446.807 784.374V793.76H444.441V772.752H446.807V775.378ZM456.479 779.824C456.479 778.749 456.263 777.813 455.829 777.016C455.396 776.219 454.807 775.612 454.061 775.196C453.333 774.78 452.527 774.572 451.643 774.572C450.777 774.572 449.971 774.789 449.225 775.222C448.497 775.638 447.908 776.253 447.457 777.068C447.024 777.865 446.807 778.793 446.807 779.85C446.807 780.925 447.024 781.869 447.457 782.684C447.908 783.481 448.497 784.097 449.225 784.53C449.971 784.946 450.777 785.154 451.643 785.154C452.527 785.154 453.333 784.946 454.061 784.53C454.807 784.097 455.396 783.481 455.829 782.684C456.263 781.869 456.479 780.916 456.479 779.824ZM475.012 779.33C475.012 779.781 474.986 780.257 474.934 780.76H463.546C463.632 782.164 464.109 783.265 464.976 784.062C465.86 784.842 466.926 785.232 468.174 785.232C469.196 785.232 470.046 784.998 470.722 784.53C471.415 784.045 471.9 783.403 472.178 782.606H474.726C474.344 783.975 473.582 785.093 472.438 785.96C471.294 786.809 469.872 787.234 468.174 787.234C466.822 787.234 465.608 786.931 464.534 786.324C463.476 785.717 462.644 784.859 462.038 783.75C461.431 782.623 461.128 781.323 461.128 779.85C461.128 778.377 461.422 777.085 462.012 775.976C462.601 774.867 463.424 774.017 464.482 773.428C465.556 772.821 466.787 772.518 468.174 772.518C469.526 772.518 470.722 772.813 471.762 773.402C472.802 773.991 473.599 774.806 474.154 775.846C474.726 776.869 475.012 778.03 475.012 779.33ZM472.568 778.836C472.568 777.935 472.368 777.163 471.97 776.522C471.571 775.863 471.025 775.369 470.332 775.04C469.656 774.693 468.902 774.52 468.07 774.52C466.874 774.52 465.851 774.901 465.002 775.664C464.17 776.427 463.693 777.484 463.572 778.836H472.568ZM485.077 772.492C486.81 772.492 488.214 773.021 489.289 774.078C490.363 775.118 490.901 776.626 490.901 778.602V787H488.561V778.94C488.561 777.519 488.205 776.435 487.495 775.69C486.784 774.927 485.813 774.546 484.583 774.546C483.335 774.546 482.338 774.936 481.593 775.716C480.865 776.496 480.501 777.631 480.501 779.122V787H478.135V772.752H480.501V774.78C480.969 774.052 481.601 773.489 482.399 773.09C483.213 772.691 484.106 772.492 485.077 772.492ZM507.495 774.702H504.505V787H502.139V774.702H500.293V772.752H502.139V771.738C502.139 770.143 502.547 768.982 503.361 768.254C504.193 767.509 505.519 767.136 507.339 767.136V769.112C506.299 769.112 505.563 769.32 505.129 769.736C504.713 770.135 504.505 770.802 504.505 771.738V772.752H507.495V774.702ZM516.468 787.234C515.133 787.234 513.92 786.931 512.828 786.324C511.753 785.717 510.904 784.859 510.28 783.75C509.673 782.623 509.37 781.323 509.37 779.85C509.37 778.394 509.682 777.111 510.306 776.002C510.947 774.875 511.814 774.017 512.906 773.428C513.998 772.821 515.22 772.518 516.572 772.518C517.924 772.518 519.146 772.821 520.238 773.428C521.33 774.017 522.188 774.867 522.812 775.976C523.453 777.085 523.774 778.377 523.774 779.85C523.774 781.323 523.445 782.623 522.786 783.75C522.145 784.859 521.269 785.717 520.16 786.324C519.051 786.931 517.82 787.234 516.468 787.234ZM516.468 785.154C517.317 785.154 518.115 784.955 518.86 784.556C519.605 784.157 520.203 783.559 520.654 782.762C521.122 781.965 521.356 780.994 521.356 779.85C521.356 778.706 521.131 777.735 520.68 776.938C520.229 776.141 519.64 775.551 518.912 775.17C518.184 774.771 517.395 774.572 516.546 774.572C515.679 774.572 514.882 774.771 514.154 775.17C513.443 775.551 512.871 776.141 512.438 776.938C512.005 777.735 511.788 778.706 511.788 779.85C511.788 781.011 511.996 781.991 512.412 782.788C512.845 783.585 513.417 784.183 514.128 784.582C514.839 784.963 515.619 785.154 516.468 785.154ZM529.251 775.066C529.667 774.251 530.256 773.619 531.019 773.168C531.799 772.717 532.743 772.492 533.853 772.492V774.936H533.229C530.577 774.936 529.251 776.375 529.251 779.252V787H526.885V772.752H529.251V775.066ZM545.882 775.404C546.367 774.555 547.078 773.861 548.014 773.324C548.95 772.787 550.016 772.518 551.212 772.518C552.494 772.518 553.647 772.821 554.67 773.428C555.692 774.035 556.498 774.893 557.088 776.002C557.677 777.094 557.972 778.368 557.972 779.824C557.972 781.263 557.677 782.545 557.088 783.672C556.498 784.799 555.684 785.674 554.644 786.298C553.621 786.922 552.477 787.234 551.212 787.234C549.981 787.234 548.898 786.965 547.962 786.428C547.043 785.891 546.35 785.206 545.882 784.374V787H543.516V767.76H545.882V775.404ZM555.554 779.824C555.554 778.749 555.337 777.813 554.904 777.016C554.47 776.219 553.881 775.612 553.136 775.196C552.408 774.78 551.602 774.572 550.718 774.572C549.851 774.572 549.045 774.789 548.3 775.222C547.572 775.638 546.982 776.253 546.532 777.068C546.098 777.865 545.882 778.793 545.882 779.85C545.882 780.925 546.098 781.869 546.532 782.684C546.982 783.481 547.572 784.097 548.3 784.53C549.045 784.946 549.851 785.154 550.718 785.154C551.602 785.154 552.408 784.946 553.136 784.53C553.881 784.097 554.47 783.481 554.904 782.684C555.337 781.869 555.554 780.916 555.554 779.824ZM562.308 770.438C561.857 770.438 561.476 770.282 561.164 769.97C560.852 769.658 560.696 769.277 560.696 768.826C560.696 768.375 560.852 767.994 561.164 767.682C561.476 767.37 561.857 767.214 562.308 767.214C562.741 767.214 563.105 767.37 563.4 767.682C563.712 767.994 563.868 768.375 563.868 768.826C563.868 769.277 563.712 769.658 563.4 769.97C563.105 770.282 562.741 770.438 562.308 770.438ZM563.452 772.752V787H561.086V772.752H563.452ZM566.6 779.824C566.6 778.368 566.895 777.094 567.484 776.002C568.074 774.893 568.88 774.035 569.902 773.428C570.942 772.821 572.104 772.518 573.386 772.518C574.496 772.518 575.527 772.778 576.48 773.298C577.434 773.801 578.162 774.468 578.664 775.3V767.76H581.056V787H578.664V784.322C578.196 785.171 577.503 785.873 576.584 786.428C575.666 786.965 574.591 787.234 573.36 787.234C572.095 787.234 570.942 786.922 569.902 786.298C568.88 785.674 568.074 784.799 567.484 783.672C566.895 782.545 566.6 781.263 566.6 779.824ZM578.664 779.85C578.664 778.775 578.448 777.839 578.014 777.042C577.581 776.245 576.992 775.638 576.246 775.222C575.518 774.789 574.712 774.572 573.828 774.572C572.944 774.572 572.138 774.78 571.41 775.196C570.682 775.612 570.102 776.219 569.668 777.016C569.235 777.813 569.018 778.749 569.018 779.824C569.018 780.916 569.235 781.869 569.668 782.684C570.102 783.481 570.682 784.097 571.41 784.53C572.138 784.946 572.944 785.154 573.828 785.154C574.712 785.154 575.518 784.946 576.246 784.53C576.992 784.097 577.581 783.481 578.014 782.684C578.448 781.869 578.664 780.925 578.664 779.85ZM590.099 787.234C589.007 787.234 588.027 787.052 587.161 786.688C586.294 786.307 585.609 785.787 585.107 785.128C584.604 784.452 584.327 783.681 584.275 782.814H586.719C586.788 783.525 587.117 784.105 587.707 784.556C588.313 785.007 589.102 785.232 590.073 785.232C590.974 785.232 591.685 785.033 592.205 784.634C592.725 784.235 592.985 783.733 592.985 783.126C592.985 782.502 592.707 782.043 592.153 781.748C591.598 781.436 590.74 781.133 589.579 780.838C588.521 780.561 587.655 780.283 586.979 780.006C586.32 779.711 585.748 779.287 585.263 778.732C584.795 778.16 584.561 777.415 584.561 776.496C584.561 775.768 584.777 775.101 585.211 774.494C585.644 773.887 586.259 773.411 587.057 773.064C587.854 772.7 588.764 772.518 589.787 772.518C591.364 772.518 592.638 772.917 593.609 773.714C594.579 774.511 595.099 775.603 595.169 776.99H592.803C592.751 776.245 592.447 775.647 591.893 775.196C591.355 774.745 590.627 774.52 589.709 774.52C588.859 774.52 588.183 774.702 587.681 775.066C587.178 775.43 586.927 775.907 586.927 776.496C586.927 776.964 587.074 777.354 587.369 777.666C587.681 777.961 588.062 778.203 588.513 778.394C588.981 778.567 589.622 778.767 590.437 778.992C591.459 779.269 592.291 779.547 592.933 779.824C593.574 780.084 594.12 780.483 594.571 781.02C595.039 781.557 595.281 782.259 595.299 783.126C595.299 783.906 595.082 784.608 594.649 785.232C594.215 785.856 593.6 786.35 592.803 786.714C592.023 787.061 591.121 787.234 590.099 787.234Z" fill="white"/>
<path d="M16.25 1209H13.884L4.368 1194.57V1209H2.002V1190.85H4.368L13.884 1205.26V1190.85H16.25V1209ZM30.5273 1190.88V1192.8H22.6493V1198.91H29.0453V1200.84H22.6493V1209H20.2833V1190.88H30.5273ZM44.5388 1190.88V1192.8H39.5988V1209H37.2328V1192.8H32.2668V1190.88H44.5388ZM53.4989 1201.82C53.4989 1200.37 53.7935 1199.09 54.3829 1198C54.9722 1196.89 55.7782 1196.03 56.8009 1195.43C57.8409 1194.82 58.9935 1194.52 60.2589 1194.52C61.5069 1194.52 62.5902 1194.79 63.5089 1195.32C64.4275 1195.86 65.1122 1196.54 65.5629 1197.35V1194.75H67.9549V1209H65.5629V1206.35C65.0949 1207.18 64.3929 1207.87 63.4569 1208.43C62.5382 1208.97 61.4635 1209.23 60.2329 1209.23C58.9675 1209.23 57.8235 1208.92 56.8009 1208.3C55.7782 1207.67 54.9722 1206.8 54.3829 1205.67C53.7935 1204.55 53.4989 1203.26 53.4989 1201.82ZM65.5629 1201.85C65.5629 1200.78 65.3462 1199.84 64.9129 1199.04C64.4795 1198.24 63.8902 1197.64 63.1449 1197.22C62.4169 1196.79 61.6109 1196.57 60.7269 1196.57C59.8429 1196.57 59.0369 1196.78 58.3089 1197.2C57.5809 1197.61 57.0002 1198.22 56.5669 1199.02C56.1335 1199.81 55.9169 1200.75 55.9169 1201.82C55.9169 1202.92 56.1335 1203.87 56.5669 1204.68C57.0002 1205.48 57.5809 1206.1 58.3089 1206.53C59.0369 1206.95 59.8429 1207.15 60.7269 1207.15C61.6109 1207.15 62.4169 1206.95 63.1449 1206.53C63.8902 1206.1 64.4795 1205.48 64.9129 1204.68C65.3462 1203.87 65.5629 1202.92 65.5629 1201.85ZM76.9972 1209.23C75.9052 1209.23 74.9258 1209.05 74.0592 1208.69C73.1925 1208.31 72.5078 1207.79 72.0052 1207.13C71.5025 1206.45 71.2252 1205.68 71.1732 1204.81H73.6172C73.6865 1205.52 74.0158 1206.11 74.6052 1206.56C75.2118 1207.01 76.0005 1207.23 76.9712 1207.23C77.8725 1207.23 78.5832 1207.03 79.1032 1206.63C79.6232 1206.24 79.8832 1205.73 79.8832 1205.13C79.8832 1204.5 79.6058 1204.04 79.0512 1203.75C78.4965 1203.44 77.6385 1203.13 76.4772 1202.84C75.4198 1202.56 74.5532 1202.28 73.8772 1202.01C73.2185 1201.71 72.6465 1201.29 72.1612 1200.73C71.6932 1200.16 71.4592 1199.41 71.4592 1198.5C71.4592 1197.77 71.6758 1197.1 72.1092 1196.49C72.5425 1195.89 73.1578 1195.41 73.9552 1195.06C74.7525 1194.7 75.6625 1194.52 76.6852 1194.52C78.2625 1194.52 79.5365 1194.92 80.5072 1195.71C81.4778 1196.51 81.9978 1197.6 82.0672 1198.99H79.7012C79.6492 1198.24 79.3458 1197.65 78.7912 1197.2C78.2538 1196.75 77.5258 1196.52 76.6072 1196.52C75.7578 1196.52 75.0818 1196.7 74.5792 1197.07C74.0765 1197.43 73.8252 1197.91 73.8252 1198.5C73.8252 1198.96 73.9725 1199.35 74.2672 1199.67C74.5792 1199.96 74.9605 1200.2 75.4112 1200.39C75.8792 1200.57 76.5205 1200.77 77.3352 1200.99C78.3578 1201.27 79.1898 1201.55 79.8312 1201.82C80.4725 1202.08 81.0185 1202.48 81.4692 1203.02C81.9372 1203.56 82.1798 1204.26 82.1972 1205.13C82.1972 1205.91 81.9805 1206.61 81.5472 1207.23C81.1138 1207.86 80.4985 1208.35 79.7012 1208.71C78.9212 1209.06 78.0198 1209.23 76.9972 1209.23ZM90.5812 1209.23C89.4892 1209.23 88.5098 1209.05 87.6432 1208.69C86.7765 1208.31 86.0918 1207.79 85.5892 1207.13C85.0865 1206.45 84.8092 1205.68 84.7572 1204.81H87.2012C87.2705 1205.52 87.5998 1206.11 88.1892 1206.56C88.7958 1207.01 89.5845 1207.23 90.5552 1207.23C91.4565 1207.23 92.1672 1207.03 92.6872 1206.63C93.2072 1206.24 93.4672 1205.73 93.4672 1205.13C93.4672 1204.5 93.1898 1204.04 92.6352 1203.75C92.0805 1203.44 91.2225 1203.13 90.0612 1202.84C89.0038 1202.56 88.1372 1202.28 87.4612 1202.01C86.8025 1201.71 86.2305 1201.29 85.7452 1200.73C85.2772 1200.16 85.0432 1199.41 85.0432 1198.5C85.0432 1197.77 85.2598 1197.1 85.6932 1196.49C86.1265 1195.89 86.7418 1195.41 87.5392 1195.06C88.3365 1194.7 89.2465 1194.52 90.2692 1194.52C91.8465 1194.52 93.1205 1194.92 94.0912 1195.71C95.0618 1196.51 95.5818 1197.6 95.6512 1198.99H93.2852C93.2332 1198.24 92.9298 1197.65 92.3752 1197.2C91.8378 1196.75 91.1098 1196.52 90.1912 1196.52C89.3418 1196.52 88.6658 1196.7 88.1632 1197.07C87.6605 1197.43 87.4092 1197.91 87.4092 1198.5C87.4092 1198.96 87.5565 1199.35 87.8512 1199.67C88.1632 1199.96 88.5445 1200.2 88.9952 1200.39C89.4632 1200.57 90.1045 1200.77 90.9192 1200.99C91.9418 1201.27 92.7738 1201.55 93.4152 1201.82C94.0565 1202.08 94.6025 1202.48 95.0532 1203.02C95.5212 1203.56 95.7638 1204.26 95.7812 1205.13C95.7812 1205.91 95.5645 1206.61 95.1312 1207.23C94.6978 1207.86 94.0825 1208.35 93.2852 1208.71C92.5052 1209.06 91.6038 1209.23 90.5812 1209.23ZM112.121 1201.33C112.121 1201.78 112.095 1202.26 112.043 1202.76H100.655C100.742 1204.16 101.218 1205.26 102.085 1206.06C102.969 1206.84 104.035 1207.23 105.283 1207.23C106.306 1207.23 107.155 1207 107.831 1206.53C108.524 1206.04 109.01 1205.4 109.287 1204.61H111.835C111.454 1205.98 110.691 1207.09 109.547 1207.96C108.403 1208.81 106.982 1209.23 105.283 1209.23C103.931 1209.23 102.718 1208.93 101.643 1208.32C100.586 1207.72 99.7538 1206.86 99.1471 1205.75C98.5405 1204.62 98.2371 1203.32 98.2371 1201.85C98.2371 1200.38 98.5318 1199.09 99.1211 1197.98C99.7105 1196.87 100.534 1196.02 101.591 1195.43C102.666 1194.82 103.896 1194.52 105.283 1194.52C106.635 1194.52 107.831 1194.81 108.871 1195.4C109.911 1195.99 110.708 1196.81 111.263 1197.85C111.835 1198.87 112.121 1200.03 112.121 1201.33ZM109.677 1200.84C109.677 1199.93 109.478 1199.16 109.079 1198.52C108.68 1197.86 108.134 1197.37 107.441 1197.04C106.765 1196.69 106.011 1196.52 105.179 1196.52C103.983 1196.52 102.96 1196.9 102.111 1197.66C101.279 1198.43 100.802 1199.48 100.681 1200.84H109.677ZM118.13 1196.7V1205.1C118.13 1205.79 118.278 1206.29 118.572 1206.58C118.867 1206.86 119.378 1207 120.106 1207H121.848V1209H119.716C118.399 1209 117.411 1208.7 116.752 1208.09C116.094 1207.48 115.764 1206.49 115.764 1205.1V1196.7H113.918V1194.75H115.764V1191.16H118.13V1194.75H121.848V1196.7H118.13ZM132.869 1192.44C132.418 1192.44 132.037 1192.28 131.725 1191.97C131.413 1191.66 131.257 1191.28 131.257 1190.83C131.257 1190.38 131.413 1189.99 131.725 1189.68C132.037 1189.37 132.418 1189.21 132.869 1189.21C133.302 1189.21 133.666 1189.37 133.961 1189.68C134.273 1189.99 134.429 1190.38 134.429 1190.83C134.429 1191.28 134.273 1191.66 133.961 1191.97C133.666 1192.28 133.302 1192.44 132.869 1192.44ZM134.013 1194.75V1209H131.647V1194.75H134.013ZM144.987 1194.49C146.72 1194.49 148.124 1195.02 149.199 1196.08C150.274 1197.12 150.811 1198.63 150.811 1200.6V1209H148.471V1200.94C148.471 1199.52 148.116 1198.44 147.405 1197.69C146.694 1196.93 145.724 1196.55 144.493 1196.55C143.245 1196.55 142.248 1196.94 141.503 1197.72C140.775 1198.5 140.411 1199.63 140.411 1201.12V1209H138.045V1194.75H140.411V1196.78C140.879 1196.05 141.512 1195.49 142.309 1195.09C143.124 1194.69 144.016 1194.49 144.987 1194.49ZM157.562 1196.7V1205.1C157.562 1205.79 157.709 1206.29 158.004 1206.58C158.298 1206.86 158.81 1207 159.538 1207H161.28V1209H159.148C157.83 1209 156.842 1208.7 156.184 1208.09C155.525 1207.48 155.196 1206.49 155.196 1205.1V1196.7H153.35V1194.75H155.196V1191.16H157.562V1194.75H161.28V1196.7H157.562ZM177.147 1201.33C177.147 1201.78 177.121 1202.26 177.069 1202.76H165.681C165.767 1204.16 166.244 1205.26 167.111 1206.06C167.995 1206.84 169.061 1207.23 170.309 1207.23C171.331 1207.23 172.181 1207 172.857 1206.53C173.55 1206.04 174.035 1205.4 174.313 1204.61H176.861C176.479 1205.98 175.717 1207.09 174.573 1207.96C173.429 1208.81 172.007 1209.23 170.309 1209.23C168.957 1209.23 167.743 1208.93 166.669 1208.32C165.611 1207.72 164.779 1206.86 164.173 1205.75C163.566 1204.62 163.263 1203.32 163.263 1201.85C163.263 1200.38 163.557 1199.09 164.147 1197.98C164.736 1196.87 165.559 1196.02 166.617 1195.43C167.691 1194.82 168.922 1194.52 170.309 1194.52C171.661 1194.52 172.857 1194.81 173.897 1195.4C174.937 1195.99 175.734 1196.81 176.289 1197.85C176.861 1198.87 177.147 1200.03 177.147 1201.33ZM174.703 1200.84C174.703 1199.93 174.503 1199.16 174.105 1198.52C173.706 1197.86 173.16 1197.37 172.467 1197.04C171.791 1196.69 171.037 1196.52 170.205 1196.52C169.009 1196.52 167.986 1196.9 167.137 1197.66C166.305 1198.43 165.828 1199.48 165.707 1200.84H174.703ZM186.146 1194.52C187.376 1194.52 188.451 1194.79 189.37 1195.32C190.306 1195.86 190.999 1196.54 191.45 1197.35V1194.75H193.842V1209.31C193.842 1210.61 193.564 1211.76 193.01 1212.77C192.455 1213.79 191.658 1214.59 190.618 1215.16C189.595 1215.73 188.399 1216.02 187.03 1216.02C185.158 1216.02 183.598 1215.58 182.35 1214.69C181.102 1213.81 180.365 1212.61 180.14 1211.08H182.48C182.74 1211.95 183.277 1212.64 184.092 1213.16C184.906 1213.7 185.886 1213.97 187.03 1213.97C188.33 1213.97 189.387 1213.56 190.202 1212.74C191.034 1211.93 191.45 1210.79 191.45 1209.31V1206.32C190.982 1207.15 190.288 1207.85 189.37 1208.4C188.451 1208.96 187.376 1209.23 186.146 1209.23C184.88 1209.23 183.728 1208.92 182.688 1208.3C181.665 1207.67 180.859 1206.8 180.27 1205.67C179.68 1204.55 179.386 1203.26 179.386 1201.82C179.386 1200.37 179.68 1199.09 180.27 1198C180.859 1196.89 181.665 1196.03 182.688 1195.43C183.728 1194.82 184.88 1194.52 186.146 1194.52ZM191.45 1201.85C191.45 1200.78 191.233 1199.84 190.8 1199.04C190.366 1198.24 189.777 1197.64 189.032 1197.22C188.304 1196.79 187.498 1196.57 186.614 1196.57C185.73 1196.57 184.924 1196.78 184.196 1197.2C183.468 1197.61 182.887 1198.22 182.454 1199.02C182.02 1199.81 181.804 1200.75 181.804 1201.82C181.804 1202.92 182.02 1203.87 182.454 1204.68C182.887 1205.48 183.468 1206.1 184.196 1206.53C184.924 1206.95 185.73 1207.15 186.614 1207.15C187.498 1207.15 188.304 1206.95 189.032 1206.53C189.777 1206.1 190.366 1205.48 190.8 1204.68C191.233 1203.87 191.45 1202.92 191.45 1201.85ZM200.206 1197.07C200.622 1196.25 201.211 1195.62 201.974 1195.17C202.754 1194.72 203.699 1194.49 204.808 1194.49V1196.94H204.184C201.532 1196.94 200.206 1198.37 200.206 1201.25V1209H197.84V1194.75H200.206V1197.07ZM206.655 1201.82C206.655 1200.37 206.95 1199.09 207.539 1198C208.128 1196.89 208.934 1196.03 209.957 1195.43C210.997 1194.82 212.15 1194.52 213.415 1194.52C214.663 1194.52 215.746 1194.79 216.665 1195.32C217.584 1195.86 218.268 1196.54 218.719 1197.35V1194.75H221.111V1209H218.719V1206.35C218.251 1207.18 217.549 1207.87 216.613 1208.43C215.694 1208.97 214.62 1209.23 213.389 1209.23C212.124 1209.23 210.98 1208.92 209.957 1208.3C208.934 1207.67 208.128 1206.8 207.539 1205.67C206.95 1204.55 206.655 1203.26 206.655 1201.82ZM218.719 1201.85C218.719 1200.78 218.502 1199.84 218.069 1199.04C217.636 1198.24 217.046 1197.64 216.301 1197.22C215.573 1196.79 214.767 1196.57 213.883 1196.57C212.999 1196.57 212.193 1196.78 211.465 1197.2C210.737 1197.61 210.156 1198.22 209.723 1199.02C209.29 1199.81 209.073 1200.75 209.073 1201.82C209.073 1202.92 209.29 1203.87 209.723 1204.68C210.156 1205.48 210.737 1206.1 211.465 1206.53C212.193 1206.95 212.999 1207.15 213.883 1207.15C214.767 1207.15 215.573 1206.95 216.301 1206.53C217.046 1206.1 217.636 1205.48 218.069 1204.68C218.502 1203.87 218.719 1202.92 218.719 1201.85ZM227.995 1196.7V1205.1C227.995 1205.79 228.143 1206.29 228.437 1206.58C228.732 1206.86 229.243 1207 229.971 1207H231.713V1209H229.581C228.264 1209 227.276 1208.7 226.617 1208.09C225.959 1207.48 225.629 1206.49 225.629 1205.1V1196.7H223.783V1194.75H225.629V1191.16H227.995V1194.75H231.713V1196.7H227.995ZM235.802 1192.44C235.351 1192.44 234.97 1192.28 234.658 1191.97C234.346 1191.66 234.19 1191.28 234.19 1190.83C234.19 1190.38 234.346 1189.99 234.658 1189.68C234.97 1189.37 235.351 1189.21 235.802 1189.21C236.235 1189.21 236.599 1189.37 236.894 1189.68C237.206 1189.99 237.362 1190.38 237.362 1190.83C237.362 1191.28 237.206 1191.66 236.894 1191.97C236.599 1192.28 236.235 1192.44 235.802 1192.44ZM236.946 1194.75V1209H234.58V1194.75H236.946ZM247.193 1209.23C245.858 1209.23 244.645 1208.93 243.553 1208.32C242.478 1207.72 241.629 1206.86 241.005 1205.75C240.398 1204.62 240.095 1203.32 240.095 1201.85C240.095 1200.39 240.407 1199.11 241.031 1198C241.672 1196.88 242.539 1196.02 243.631 1195.43C244.723 1194.82 245.945 1194.52 247.297 1194.52C248.649 1194.52 249.871 1194.82 250.963 1195.43C252.055 1196.02 252.913 1196.87 253.537 1197.98C254.178 1199.09 254.499 1200.38 254.499 1201.85C254.499 1203.32 254.169 1204.62 253.511 1205.75C252.869 1206.86 251.994 1207.72 250.885 1208.32C249.775 1208.93 248.545 1209.23 247.193 1209.23ZM247.193 1207.15C248.042 1207.15 248.839 1206.95 249.585 1206.56C250.33 1206.16 250.928 1205.56 251.379 1204.76C251.847 1203.96 252.081 1202.99 252.081 1201.85C252.081 1200.71 251.855 1199.74 251.405 1198.94C250.954 1198.14 250.365 1197.55 249.637 1197.17C248.909 1196.77 248.12 1196.57 247.271 1196.57C246.404 1196.57 245.607 1196.77 244.879 1197.17C244.168 1197.55 243.596 1198.14 243.163 1198.94C242.729 1199.74 242.513 1200.71 242.513 1201.85C242.513 1203.01 242.721 1203.99 243.137 1204.79C243.57 1205.59 244.142 1206.18 244.853 1206.58C245.563 1206.96 246.343 1207.15 247.193 1207.15ZM264.551 1194.49C266.285 1194.49 267.689 1195.02 268.763 1196.08C269.838 1197.12 270.375 1198.63 270.375 1200.6V1209H268.035V1200.94C268.035 1199.52 267.68 1198.44 266.969 1197.69C266.259 1196.93 265.288 1196.55 264.057 1196.55C262.809 1196.55 261.813 1196.94 261.067 1197.72C260.339 1198.5 259.975 1199.63 259.975 1201.12V1209H257.609V1194.75H259.975V1196.78C260.443 1196.05 261.076 1195.49 261.873 1195.09C262.688 1194.69 263.581 1194.49 264.551 1194.49Z" fill="white"/>
<path d="M438.25 1089H435.884L426.368 1074.57V1089H424.002V1070.85H426.368L435.884 1085.26V1070.85H438.25V1089ZM452.527 1070.88V1072.8H444.649V1078.91H451.045V1080.84H444.649V1089H442.283V1070.88H452.527ZM466.539 1070.88V1072.8H461.599V1089H459.233V1072.8H454.267V1070.88H466.539ZM489.383 1081.33C489.383 1081.78 489.357 1082.26 489.305 1082.76H477.917C478.004 1084.16 478.48 1085.26 479.347 1086.06C480.231 1086.84 481.297 1087.23 482.545 1087.23C483.568 1087.23 484.417 1087 485.093 1086.53C485.786 1086.04 486.272 1085.4 486.549 1084.61H489.097C488.716 1085.98 487.953 1087.09 486.809 1087.96C485.665 1088.81 484.244 1089.23 482.545 1089.23C481.193 1089.23 479.98 1088.93 478.905 1088.32C477.848 1087.72 477.016 1086.86 476.409 1085.75C475.802 1084.62 475.499 1083.32 475.499 1081.85C475.499 1080.38 475.794 1079.09 476.383 1077.98C476.972 1076.87 477.796 1076.02 478.853 1075.43C479.928 1074.82 481.158 1074.52 482.545 1074.52C483.897 1074.52 485.093 1074.81 486.133 1075.4C487.173 1075.99 487.97 1076.81 488.525 1077.85C489.097 1078.87 489.383 1080.03 489.383 1081.33ZM486.939 1080.84C486.939 1079.93 486.74 1079.16 486.341 1078.52C485.942 1077.86 485.396 1077.37 484.703 1077.04C484.027 1076.69 483.273 1076.52 482.441 1076.52C481.245 1076.52 480.222 1076.9 479.373 1077.66C478.541 1078.43 478.064 1079.48 477.943 1080.84H486.939ZM499.942 1089L496.562 1083.7L493.312 1089H490.842L495.444 1081.93L490.842 1074.75H493.52L496.9 1080.03L500.124 1074.75H502.594L498.018 1081.8L502.62 1089H499.942ZM512.019 1074.49C513.094 1074.49 514.065 1074.73 514.931 1075.19C515.798 1075.64 516.474 1076.33 516.959 1077.25C517.462 1078.17 517.713 1079.28 517.713 1080.6V1089H515.373V1080.94C515.373 1079.52 515.018 1078.44 514.307 1077.69C513.597 1076.93 512.626 1076.55 511.395 1076.55C510.147 1076.55 509.151 1076.94 508.405 1077.72C507.677 1078.5 507.313 1079.63 507.313 1081.12V1089H504.947V1069.76H507.313V1076.78C507.781 1076.05 508.423 1075.49 509.237 1075.09C510.069 1074.69 510.997 1074.49 512.019 1074.49ZM522.8 1072.44C522.35 1072.44 521.968 1072.28 521.656 1071.97C521.344 1071.66 521.188 1071.28 521.188 1070.83C521.188 1070.38 521.344 1069.99 521.656 1069.68C521.968 1069.37 522.35 1069.21 522.8 1069.21C523.234 1069.21 523.598 1069.37 523.892 1069.68C524.204 1069.99 524.36 1070.38 524.36 1070.83C524.36 1071.28 524.204 1071.66 523.892 1071.97C523.598 1072.28 523.234 1072.44 522.8 1072.44ZM523.944 1074.75V1089H521.578V1074.75H523.944ZM530.343 1077.4C530.828 1076.55 531.539 1075.86 532.475 1075.32C533.411 1074.79 534.477 1074.52 535.673 1074.52C536.955 1074.52 538.108 1074.82 539.131 1075.43C540.153 1076.03 540.959 1076.89 541.549 1078C542.138 1079.09 542.433 1080.37 542.433 1081.82C542.433 1083.26 542.138 1084.55 541.549 1085.67C540.959 1086.8 540.145 1087.67 539.105 1088.3C538.082 1088.92 536.938 1089.23 535.673 1089.23C534.442 1089.23 533.359 1088.97 532.423 1088.43C531.504 1087.89 530.811 1087.21 530.343 1086.37V1089H527.977V1069.76H530.343V1077.4ZM540.015 1081.82C540.015 1080.75 539.798 1079.81 539.365 1079.02C538.931 1078.22 538.342 1077.61 537.597 1077.2C536.869 1076.78 536.063 1076.57 535.179 1076.57C534.312 1076.57 533.506 1076.79 532.761 1077.22C532.033 1077.64 531.443 1078.25 530.993 1079.07C530.559 1079.87 530.343 1080.79 530.343 1081.85C530.343 1082.92 530.559 1083.87 530.993 1084.68C531.443 1085.48 532.033 1086.1 532.761 1086.53C533.506 1086.95 534.312 1087.15 535.179 1087.15C536.063 1087.15 536.869 1086.95 537.597 1086.53C538.342 1086.1 538.931 1085.48 539.365 1084.68C539.798 1083.87 540.015 1082.92 540.015 1081.82ZM546.769 1072.44C546.318 1072.44 545.937 1072.28 545.625 1071.97C545.313 1071.66 545.157 1071.28 545.157 1070.83C545.157 1070.38 545.313 1069.99 545.625 1069.68C545.937 1069.37 546.318 1069.21 546.769 1069.21C547.202 1069.21 547.566 1069.37 547.861 1069.68C548.173 1069.99 548.329 1070.38 548.329 1070.83C548.329 1071.28 548.173 1071.66 547.861 1071.97C547.566 1072.28 547.202 1072.44 546.769 1072.44ZM547.913 1074.75V1089H545.547V1074.75H547.913ZM554.831 1076.7V1085.1C554.831 1085.79 554.979 1086.29 555.273 1086.58C555.568 1086.86 556.079 1087 556.807 1087H558.549V1089H556.417C555.1 1089 554.112 1088.7 553.453 1088.09C552.795 1087.48 552.465 1086.49 552.465 1085.1V1076.7H550.619V1074.75H552.465V1071.16H554.831V1074.75H558.549V1076.7H554.831ZM562.638 1072.44C562.187 1072.44 561.806 1072.28 561.494 1071.97C561.182 1071.66 561.026 1071.28 561.026 1070.83C561.026 1070.38 561.182 1069.99 561.494 1069.68C561.806 1069.37 562.187 1069.21 562.638 1069.21C563.071 1069.21 563.435 1069.37 563.73 1069.68C564.042 1069.99 564.198 1070.38 564.198 1070.83C564.198 1071.28 564.042 1071.66 563.73 1071.97C563.435 1072.28 563.071 1072.44 562.638 1072.44ZM563.782 1074.75V1089H561.416V1074.75H563.782ZM574.029 1089.23C572.694 1089.23 571.481 1088.93 570.389 1088.32C569.314 1087.72 568.465 1086.86 567.841 1085.75C567.234 1084.62 566.931 1083.32 566.931 1081.85C566.931 1080.39 567.243 1079.11 567.867 1078C568.508 1076.88 569.375 1076.02 570.467 1075.43C571.559 1074.82 572.781 1074.52 574.133 1074.52C575.485 1074.52 576.707 1074.82 577.799 1075.43C578.891 1076.02 579.749 1076.87 580.373 1077.98C581.014 1079.09 581.335 1080.38 581.335 1081.85C581.335 1083.32 581.005 1084.62 580.347 1085.75C579.705 1086.86 578.83 1087.72 577.721 1088.32C576.611 1088.93 575.381 1089.23 574.029 1089.23ZM574.029 1087.15C574.878 1087.15 575.675 1086.95 576.421 1086.56C577.166 1086.16 577.764 1085.56 578.215 1084.76C578.683 1083.96 578.917 1082.99 578.917 1081.85C578.917 1080.71 578.691 1079.74 578.241 1078.94C577.79 1078.14 577.201 1077.55 576.473 1077.17C575.745 1076.77 574.956 1076.57 574.107 1076.57C573.24 1076.57 572.443 1076.77 571.715 1077.17C571.004 1077.55 570.432 1078.14 569.999 1078.94C569.565 1079.74 569.349 1080.71 569.349 1081.85C569.349 1083.01 569.557 1083.99 569.973 1084.79C570.406 1085.59 570.978 1086.18 571.689 1086.58C572.399 1086.96 573.179 1087.15 574.029 1087.15ZM591.387 1074.49C593.121 1074.49 594.525 1075.02 595.599 1076.08C596.674 1077.12 597.211 1078.63 597.211 1080.6V1089H594.871V1080.94C594.871 1079.52 594.516 1078.44 593.805 1077.69C593.095 1076.93 592.124 1076.55 590.893 1076.55C589.645 1076.55 588.649 1076.94 587.903 1077.72C587.175 1078.5 586.811 1079.63 586.811 1081.12V1089H584.445V1074.75H586.811V1076.78C587.279 1076.05 587.912 1075.49 588.709 1075.09C589.524 1074.69 590.417 1074.49 591.387 1074.49Z" fill="white"/>
<defs>
<filter id="filter0_dd_114_313" x="346.298" y="0.998291" width="14.4188" height="1282" filterUnits="userSpaceOnUse" color-interpolation-filters="sRGB">
<feFlood flood-opacity="0" result="BackgroundImageFix"/>
<feColorMatrix in="SourceAlpha" type="matrix" values="0 0 0 0 0 0 0 0 0 0 0 0 0 0 0 0 0 0 127 0" result="hardAlpha"/>
<feOffset dy="4"/>
<feGaussianBlur stdDeviation="2"/>
<feComposite in2="hardAlpha" operator="out"/>
<feColorMatrix type="matrix" values="0 0 0 0 0 0 0 0 0 0 0 0 0 0 0 0 0 0 0.25 0"/>
<feBlend mode="normal" in2="BackgroundImageFix" result="effect1_dropShadow_114_313"/>
<feColorMatrix in="SourceAlpha" type="matrix" values="0 0 0 0 0 0 0 0 0 0 0 0 0 0 0 0 0 0 127 0" result="hardAlpha"/>
<feOffset dy="4"/>
<feGaussianBlur stdDeviation="2"/>
<feComposite in2="hardAlpha" operator="out"/>
<feColorMatrix type="matrix" values="0 0 0 0 0 0 0 0 0 0 0 0 0 0 0 0 0 0 0.25 0"/>
<feBlend mode="normal" in2="effect1_dropShadow_114_313" result="effect2_dropShadow_114_313"/>
<feBlend mode="normal" in="SourceGraphic" in2="effect2_dropShadow_114_313" result="shape"/>
</filter>
<linearGradient id="paint0_linear_114_313" x1="353.885" y1="1275" x2="352.668" y2="-15.4663" gradientUnits="userSpaceOnUse">
<stop stop-color="#FF49C2"/>
<stop offset="1" stop-color="#FFA219"/>
</linearGradient>
</defs>
</svg>
